<svg xmlns="http://www.w3.org/2000/svg" xmlns:xlink="http://www.w3.org/1999/xlink" width="457" height="448" viewBox="0 0 457 448">
  <defs>
    <linearGradient id="linear-gradient" x1="0.5" y1="1" x2="0.5" gradientUnits="objectBoundingBox">
      <stop offset="0" stop-color="#259821"/>
      <stop offset="1" stop-color="#114a4c"/>
    </linearGradient>
    <filter id="Rectangle_100" x="-1.5" y="-0.5" width="460" height="451" filterUnits="userSpaceOnUse">
      <feOffset dy="1" input="SourceAlpha"/>
      <feGaussianBlur stdDeviation="0.5" result="blur"/>
      <feFlood flood-opacity="0.102"/>
      <feComposite operator="in" in2="blur"/>
      <feComposite in="SourceGraphic"/>
    </filter>
    <clipPath id="clip-path">
      <g transform="matrix(1, 0, 0, 1, 0, 0)" filter="url(#Rectangle_100)">
        <rect id="Rectangle_100-2" data-name="Rectangle 100" width="457" height="448" fill="url(#linear-gradient)"/>
      </g>
    </clipPath>
    <clipPath id="clip-path-2">
      <rect id="Rectangle_99" data-name="Rectangle 99" width="765.333" height="510.29" fill="none"/>
    </clipPath>
    <linearGradient id="linear-gradient-2" x1="0.571" y1="0.588" x2="0.371" y2="0.341" gradientUnits="objectBoundingBox">
      <stop offset="0" stop-color="#afafaf"/>
      <stop offset="1" stop-color="#fefefe"/>
    </linearGradient>
    <linearGradient id="linear-gradient-3" x1="0.565" y1="0.578" x2="0.367" y2="0.339" xlink:href="#linear-gradient-2"/>
    <linearGradient id="linear-gradient-4" x1="0.559" y1="0.568" x2="0.363" y2="0.337" xlink:href="#linear-gradient-2"/>
    <linearGradient id="linear-gradient-5" x1="0.554" y1="0.56" x2="0.36" y2="0.335" xlink:href="#linear-gradient-2"/>
    <linearGradient id="linear-gradient-6" x1="0.549" y1="0.553" x2="0.356" y2="0.334" xlink:href="#linear-gradient-2"/>
    <linearGradient id="linear-gradient-7" x1="0.544" y1="0.546" x2="0.353" y2="0.333" xlink:href="#linear-gradient-2"/>
    <linearGradient id="linear-gradient-8" x1="0.54" y1="0.541" x2="0.35" y2="0.332" xlink:href="#linear-gradient-2"/>
    <linearGradient id="linear-gradient-9" x1="0.536" y1="0.536" x2="0.348" y2="0.33" xlink:href="#linear-gradient-2"/>
    <linearGradient id="linear-gradient-10" x1="0.533" y1="0.532" x2="0.345" y2="0.329" xlink:href="#linear-gradient-2"/>
    <linearGradient id="linear-gradient-11" x1="0.531" y1="0.53" x2="0.343" y2="0.328" xlink:href="#linear-gradient-2"/>
    <linearGradient id="linear-gradient-12" x1="0.529" y1="0.527" x2="0.34" y2="0.327" xlink:href="#linear-gradient-2"/>
    <linearGradient id="linear-gradient-13" x1="0.527" y1="0.526" x2="0.338" y2="0.326" xlink:href="#linear-gradient-2"/>
    <linearGradient id="linear-gradient-14" x1="0.525" y1="0.526" x2="0.335" y2="0.326" xlink:href="#linear-gradient-2"/>
    <linearGradient id="linear-gradient-15" x1="0.525" y1="0.527" x2="0.333" y2="0.325" xlink:href="#linear-gradient-2"/>
    <linearGradient id="linear-gradient-16" x1="0.525" y1="0.528" x2="0.331" y2="0.323" xlink:href="#linear-gradient-2"/>
    <linearGradient id="linear-gradient-17" x1="0.525" y1="0.53" x2="0.329" y2="0.322" xlink:href="#linear-gradient-2"/>
    <linearGradient id="linear-gradient-18" x1="0.527" y1="0.532" x2="0.327" y2="0.319" xlink:href="#linear-gradient-2"/>
    <linearGradient id="linear-gradient-19" x1="0.529" y1="0.535" x2="0.326" y2="0.317" xlink:href="#linear-gradient-2"/>
    <linearGradient id="linear-gradient-20" x1="0.532" y1="0.539" x2="0.324" y2="0.314" xlink:href="#linear-gradient-2"/>
    <linearGradient id="linear-gradient-21" x1="0.536" y1="0.544" x2="0.323" y2="0.311" xlink:href="#linear-gradient-2"/>
    <linearGradient id="linear-gradient-22" x1="0.54" y1="0.55" x2="0.321" y2="0.308" xlink:href="#linear-gradient-2"/>
    <linearGradient id="linear-gradient-23" x1="0.545" y1="0.557" x2="0.32" y2="0.305" xlink:href="#linear-gradient-2"/>
    <linearGradient id="linear-gradient-24" x1="0.55" y1="0.565" x2="0.318" y2="0.302" xlink:href="#linear-gradient-2"/>
    <linearGradient id="linear-gradient-25" x1="0.555" y1="0.575" x2="0.315" y2="0.299" xlink:href="#linear-gradient-2"/>
    <linearGradient id="linear-gradient-26" x1="0.561" y1="0.587" x2="0.313" y2="0.296" xlink:href="#linear-gradient-2"/>
    <linearGradient id="linear-gradient-27" x1="0.567" y1="0.6" x2="0.31" y2="0.294" xlink:href="#linear-gradient-2"/>
  </defs>
  <g id="Mask_Group_15" data-name="Mask Group 15" clip-path="url(#clip-path)">
    <g id="Group_282" data-name="Group 282" transform="translate(0 -31.49)" style="isolation: isolate">
      <g id="Group_281" data-name="Group 281" clip-path="url(#clip-path-2)">
        <g id="Group_280" data-name="Group 280" transform="translate(-237.259 -528.622)">
          <g id="Group_279" data-name="Group 279" transform="translate(0)">
            <g id="Group_253" data-name="Group 253">
              <path id="Path_287" data-name="Path 287" d="M972.035,346.863c-161.12-1.221-302.706,43.632-424.757,115.768C425.227,534.35,322.712,633.351,239.73,730.756,156.749,828.416,93.3,924.492,49.391,996.353q-65.867,109.194-73.13,145.618-26.622-40.139-54.248-83.267,7.262-24.866,73.13-127.5C39.055,863.754,102.5,770.431,185.482,674.277,268.463,578.4,370.979,479.69,493.03,407.8,615.081,335.5,756.667,290.035,917.788,291.432Q945.413,320.232,972.035,346.863Z" transform="translate(80.352 -288.932)" fill="#7f7f7f"/>
              <path id="Path_288" data-name="Path 288" d="M975.7,352.441c-161.12-1.23-302.707,43.648-424.757,115.79C428.888,539.957,326.373,638.946,243.391,736.287c-82.981,97.6-146.428,193.558-190.339,265.235q-65.868,108.921-73.13,144.871-26.665-40.266-54.334-83.522,7.263-24.353,73.13-126.7c43.912-67.252,107.357-160.452,190.339-256.54,82.981-95.806,185.5-194.51,307.548-266.412,122.051-72.3,263.637-117.8,424.757-116.4Q949.032,325.722,975.7,352.441Z" transform="translate(74.411 -296.796)" fill="url(#linear-gradient-2)"/>
            </g>
            <g id="Group_254" data-name="Group 254" transform="translate(47.109 48.354)">
              <path id="Path_289" data-name="Path 289" d="M899.284,237.893c-161.12-1.034-302.706,43.345-424.757,115.371C352.476,424.857,249.96,524.1,166.979,622.762,84,721.667,20.552,820.011-23.36,895.45q-65.867,114.541-73.13,160.17-25.753-37.574-52.511-78.109,7.263-34.867,73.13-143.256c43.912-71.289,107.358-167.02,190.339-264.483,82.982-97.2,185.5-196.143,307.548-267.875,122.051-72.147,263.637-117.082,424.757-115.832Q873.53,213,899.284,237.893Z" transform="translate(151.293 -183.73)" fill="#7f7f7f"/>
              <path id="Path_290" data-name="Path 290" d="M902.828,243.116c-161.121-1.044-302.707,43.359-424.757,115.389C356.02,430.1,253.5,529.332,170.523,627.937,87.542,726.782,24.1,825.016-19.816,900.284q-65.868,114.284-73.13,159.474-25.8-37.7-52.6-78.363,7.263-34.388,73.13-142.5c43.911-71.1,107.357-166.718,190.339-264.118,82.981-97.134,185.5-196.067,307.548-267.806,122.05-72.153,263.637-117.112,424.757-115.854Q877.031,218.14,902.828,243.116Z" transform="translate(145.543 -191.089)" fill="url(#linear-gradient-3)"/>
            </g>
            <g id="Group_255" data-name="Group 255" transform="translate(92.716 93.569)">
              <path id="Path_291" data-name="Path 291" d="M828.887,136.052C667.766,135.207,526.18,179.138,404.13,251.06,282.078,322.535,179.562,422,96.581,521.859,13.6,621.94-49.846,722.422-93.757,801.211q-65.868,119.543-73.13,173.689-24.885-35.048-50.775-73.012,7.263-44.145,73.13-157.971C-100.621,669.014-37.174,571,45.806,472.278c82.981-98.469,185.5-197.652,307.548-269.255C475.406,130.989,616.991,86.536,778.112,87.6Q804,112.781,828.887,136.052Z" transform="translate(219.879 -85.422)" fill="#7f7f7f"/>
              <path id="Path_292" data-name="Path 292" d="M832.314,140.925c-161.121-.854-302.707,43.1-424.757,115.026C285.506,327.432,182.99,426.889,100.009,526.688,17.028,626.712-46.418,727.091-90.33,805.721q-65.868,119.3-73.13,173.044-24.928-35.172-50.861-73.262,7.262-43.7,73.129-157.267C-97.279,673.505-33.833,575.6,49.148,476.94c82.981-98.407,185.5-197.579,307.549-269.188C478.747,135.713,620.333,91.237,781.453,92.311Q807.386,117.576,832.314,140.925Z" transform="translate(214.32 -92.292)" fill="url(#linear-gradient-4)"/>
            </g>
            <g id="Group_256" data-name="Group 256" transform="translate(136.821 135.838)">
              <path id="Path_293" data-name="Path 293" d="M760.845,41.239c-161.12-.686-302.706,42.795-424.757,114.6C214.037,227.183,111.521,326.852,28.54,427.819-54.441,528.994-117.887,631.479-161.8,713.387c-43.911,82.8-68.288,145.02-73.13,186.184q-24.017-32.577-49.038-68,7.263-52.712,73.13-171.651c43.911-78.29,107.357-178.466,190.338-278.372C62.483,281.874,165,182.46,287.05,110.975,409.1,39.044,550.686-4.957,711.807-4.084Q736.827,19.46,760.845,41.239Z" transform="translate(286.11 6.116)" fill="#7f7f7f"/>
              <path id="Path_294" data-name="Path 294" d="M764.155,45.767C603.035,45.075,461.449,88.578,339.4,160.39,217.347,231.74,114.831,331.4,31.85,432.314-51.131,533.438-114.578,635.827-158.489,717.586c-43.911,82.65-68.288,144.67-73.13,185.59q-24.06-32.7-49.124-68.249,7.262-52.305,73.13-171C-163.7,585.8-100.255,485.729-17.273,385.88c82.981-99.613,185.5-199.017,307.547-270.507C412.325,43.436,553.911-.588,715.031.3Q740.1,23.917,764.155,45.767Z" transform="translate(280.742 -0.282)" fill="url(#linear-gradient-5)"/>
            </g>
            <g id="Group_257" data-name="Group 257" transform="translate(179.424 175.371)">
              <path id="Path_295" data-name="Path 295" d="M695.157-46.7C534.037-47.284,392.451-4.278,270.4,67.379,148.349,138.558,45.833,238.388-37.148,340.373-120.129,442.553-183.575,546.9-227.487,631.7c-43.911,85.669-68.288,151.786-73.13,197.668q-23.149-30.173-47.3-63.116c4.842-40.387,29.219-101.969,73.13-184.305C-230.877,500.5-167.43,398.3-84.45,297.283-1.468,196.488,101.048,96.867,223.1,25.51,345.15-46.308,486.735-89.862,647.856-89.154Q672.009-67.122,695.157-46.7Z" transform="translate(349.987 91.051)" fill="#7f7f7f"/>
              <path id="Path_296" data-name="Path 296" d="M698.351-42.507C537.23-43.094,395.645-.064,273.594,71.6,151.543,142.79,49.027,242.613-33.954,344.551-116.935,446.683-180.382,550.941-224.293,635.6c-43.911,85.533-68.288,151.464-73.129,197.122q-23.192-30.29-47.387-63.354c4.841-40.138,29.218-101.516,73.13-183.7,43.911-81.294,107.357-183.4,190.339-284.358C1.639,200.564,104.155,100.952,226.207,29.589,348.257-42.235,489.843-85.811,650.964-85.1Q675.159-62.992,698.351-42.507Z" transform="translate(344.81 85.105)" fill="url(#linear-gradient-6)"/>
            </g>
            <g id="Group_258" data-name="Group 258" transform="translate(220.524 212.39)">
              <path id="Path_297" data-name="Path 297" d="M631.824-127.953C470.7-128.521,329.118-86.038,207.066-14.581,85.016,56.382-17.5,156.318-100.482,259.223c-82.981,103.084-146.427,209.149-190.339,296.6-43.911,88.31-68.288,158-73.13,208.155q-22.281-27.853-45.565-58.378c4.842-45.174,29.219-110.7,73.13-195.946,43.912-84.368,107.358-188.453,190.339-290.486C-63.065,117.339,39.451,17.55,161.5-53.649c122.051-71.675,263.637-114.759,424.757-114.164Q609.543-147.158,631.824-127.953Z" transform="translate(411.51 169.59)" fill="#7f7f7f"/>
              <path id="Path_298" data-name="Path 298" d="M634.9-124.087C473.781-124.653,332.2-82.142,210.144-10.674,88.093,60.3-14.422,160.234-97.4,263.1c-82.981,103.042-146.427,209.026-190.339,296.35-43.911,88.184-68.288,157.708-73.129,207.659Q-383.2,739.139-406.523,708.5c4.842-44.948,29.219-110.287,73.13-195.393,43.912-84.228,107.358-188.224,190.339-290.209C-60.073,121.115,42.443,21.332,164.493-49.875,286.545-121.558,428.13-164.667,589.251-164.068Q612.578-143.348,634.9-124.087Z" transform="translate(406.523 164.074)" fill="url(#linear-gradient-7)"/>
            </g>
            <g id="Group_259" data-name="Group 259" transform="translate(260.123 247.133)">
              <path id="Path_299" data-name="Path 299" d="M570.845-202.752c-161.12-.665-302.707,41.226-424.757,112.414C24.037-19.659-78.479,80.317-161.46,184.034-244.441,287.915-307.887,395.55-351.8,485.425c-43.912,90.719-68.288,163.679-73.13,217.665q-21.412-25.627-43.828-53.815c4.841-49.514,29.218-118.667,73.13-206.588C-351.716,355.629-288.27,249.8-205.288,146.849-122.308,44.085-19.792-55.82,102.26-126.812,224.31-198.3,365.9-240.867,527.017-240.3Q549.432-220.886,570.845-202.752Z" transform="translate(470.677 241.973)" fill="#7f7f7f"/>
              <path id="Path_300" data-name="Path 300" d="M573.807-199.2C412.687-199.856,271.1-157.933,149.05-86.73,27-16.035-75.517,83.94-158.5,187.62c-82.981,103.844-146.428,211.4-190.339,301.165C-392.749,579.39-417.125,652.2-421.967,706q-21.455-25.735-43.914-54.036c4.842-49.309,29.219-118.291,73.13-206.084C-348.84,358.95-285.393,253.207-202.413,150.3c82.981-102.721,185.5-202.622,307.548-273.625,122.051-71.495,263.637-114.093,424.757-113.529Q552.352-217.382,573.807-199.2Z" transform="translate(465.881 236.863)" fill="url(#linear-gradient-8)"/>
            </g>
            <g id="Group_260" data-name="Group 260" transform="translate(298.221 279.846)">
              <path id="Path_301" data-name="Path 301" d="M512.221-271.359c-161.12-.9-302.706,40.309-424.757,111.144C-34.587-89.905-137.1,10.03-220.084,114.445c-82.981,104.563-146.427,213.618-190.339,305.69-43.911,92.9-68.288,168.822-73.13,226.219Q-504.1,622.847-525.644,596.9c4.842-53.416,29.218-125.883,73.13-216.249,43.911-89.52,107.357-196.938,190.339-300.706C-179.195-23.645-76.679-123.6,45.372-194.32,167.423-265.547,309.009-307.538,470.13-306.9Q491.678-288.572,512.221-271.359Z" transform="translate(527.49 308.474)" fill="#7f7f7f"/>
              <path id="Path_302" data-name="Path 302" d="M515.066-268.106c-161.121-.884-302.707,40.361-424.757,111.215C-31.742-86.56-134.258,13.379-217.239,117.762c-82.981,104.532-146.427,213.52-190.339,305.489-43.911,92.8-68.288,168.579-73.13,225.818q-20.586-23.609-42.177-49.661c4.841-53.233,29.218-125.544,73.13-215.793,43.911-89.4,107.357-196.747,190.339-300.477,82.981-103.556,185.5-203.51,307.548-274.245,122.051-71.242,263.636-113.264,424.757-112.629Q494.479-285.361,515.066-268.106Z" transform="translate(522.885 303.743)" fill="url(#linear-gradient-9)"/>
            </g>
            <g id="Group_261" data-name="Group 261" transform="translate(334.817 310.779)">
              <path id="Path_303" data-name="Path 303" d="M455.952-334.067c-161.12-1.3-302.706,39.118-424.757,109.5C-90.857-154.726-193.372-54.92-276.354,50.072c-82.981,105.125-146.427,215.448-190.339,309.5-43.911,94.86-68.288,173.444-73.13,233.843q-19.676-21.5-40.355-45.309c4.841-56.892,29.219-132.367,73.13-224.951C-463.136,231.4-399.69,122.536-316.709,18.068c82.981-104.31,185.5-204.238,307.548-274.6C112.89-327.423,254.476-368.747,415.6-367.894Q436.276-350.513,455.952-334.067Z" transform="translate(581.948 369.396)" fill="#7f7f7f"/>
              <path id="Path_304" data-name="Path 304" d="M458.68-331.1c-161.12-1.274-302.706,39.185-424.757,109.591C-88.128-151.641-190.644-51.825-273.625,53.141c-82.981,105.1-146.427,215.364-190.339,309.319-43.911,94.769-68.288,173.228-73.13,233.487q-19.719-21.6-40.44-45.508c4.841-56.73,29.218-132.063,73.129-224.542,43.912-91.648,107.358-200.442,190.339-304.878C-231.085-83.258-128.569-183.19-6.518-253.575,115.533-324.482,257.119-365.841,418.239-365Q438.962-347.578,458.68-331.1Z" transform="translate(577.534 365.015)" fill="url(#linear-gradient-10)"/>
            </g>
            <g id="Group_262" data-name="Group 262" transform="translate(369.91 340.192)">
              <path id="Path_305" data-name="Path 305" d="M402.037-391.2C240.916-393.079,99.331-353.585-22.72-283.772-144.772-214.513-247.288-114.934-330.268-9.489c-82.981,105.562-146.428,217-190.339,312.8-43.911,96.6-68.288,177.562-73.13,240.565q-18.807-19.628-38.618-41.407c4.841-59.957,29.218-138.141,73.129-232.718C-515.314,175.993-451.868,65.839-368.887-39.21c82.981-104.906,185.5-204.72,307.548-274.633,122.051-70.451,263.637-111,424.758-109.777Q383.229-407.03,402.037-391.2Z" transform="translate(634.052 425.068)" fill="#7f7f7f"/>
              <path id="Path_306" data-name="Path 306" d="M404.649-388.5C243.528-390.344,101.942-350.8-20.108-280.957-142.159-211.666-244.675-112.073-327.656-6.648-410.638,98.9-474.084,210.285-518,306c-43.912,96.519-68.288,177.37-73.13,240.253q-18.85-19.717-38.7-41.594c4.841-59.814,29.218-137.872,73.13-232.355C-512.788,178.64-449.342,68.547-366.361-36.477c82.981-104.879,185.5-204.7,307.548-274.639C63.238-381.591,204.824-422.183,365.944-420.981Q385.8-404.356,404.649-388.5Z" transform="translate(629.829 421.007)" fill="url(#linear-gradient-11)"/>
            </g>
            <g id="Group_263" data-name="Group 263" transform="translate(403.501 368.34)">
              <path id="Path_307" data-name="Path 307" d="M350.477-443.089C189.356-445.763,47.77-407.339-74.281-338.22-196.332-269.671-298.848-170.426-381.829-64.658-464.81,41.213-528.256,153.621-572.168,250.966c-43.911,98.127-68.288,181.189-73.129,246.416q-17.939-17.883-36.882-37.765c4.841-62.622,29.218-143.228,73.13-239.579,43.911-95.551,107.357-206.846,190.338-312.352,82.981-105.379,185.5-204.981,307.548-274.331C10.888-436.548,152.474-476.2,313.595-474.419Q332.537-458.466,350.477-443.089Z" transform="translate(683.802 475.841)" fill="#7f7f7f"/>
              <path id="Path_308" data-name="Path 308" d="M352.973-440.639c-161.121-2.631-302.707,35.85-424.758,105.007C-193.836-267.044-296.352-167.78-379.333-62.025-462.314,43.834-525.76,156.2-569.671,253.471c-43.912,98.056-68.288,181.022-73.13,246.147q-17.982-17.968-36.968-37.939c4.841-62.5,29.218-142.992,73.13-239.26,43.911-95.468,107.357-206.71,190.339-312.2,82.981-105.358,185.5-204.973,307.548-274.353C13.3-434.064,154.884-473.761,316-472.016Q334.99-456.035,352.973-440.639Z" transform="translate(679.769 472.071)" fill="url(#linear-gradient-12)"/>
            </g>
            <g id="Group_264" data-name="Group 264" transform="translate(435.59 395.48)">
              <path id="Path_309" data-name="Path 309" d="M301.271-490.1C140.15-493.8-1.435-456.611-123.487-388.325c-122.051,67.7-224.567,166.5-307.548,272.458C-514.015-9.818-577.462,103.409-621.373,202.089c-43.911,99.447-68.288,184.347-73.129,251.432q-17.071-16.283-35.146-34.4c4.841-64.9,29.218-147.654,73.13-245.564C-612.607,76.432-549.161-35.853-466.18-141.689-383.2-247.411-280.683-346.7-158.632-415.357-36.581-484.585,105-523.189,266.126-520.652Q284.2-505.18,301.271-490.1Z" transform="translate(731.197 522.091)" fill="#7f7f7f"/>
              <path id="Path_310" data-name="Path 310" d="M303.651-487.887C142.531-491.528.945-454.273-121.106-385.942-243.158-318.2-345.674-219.375-428.654-113.42-511.636-7.377-575.081,105.813-618.993,204.432c-43.911,99.387-68.288,184.2-73.13,251.2q-17.113-16.358-35.231-34.558c4.841-64.8,29.218-147.45,73.13-245.288C-610.313,78.736-546.867-33.5-463.885-139.327c82.981-105.709,185.5-205.012,307.548-273.709C-34.287-482.3,107.3-520.961,268.42-518.466Q286.538-502.974,303.651-487.887Z" transform="translate(727.354 518.58)" fill="url(#linear-gradient-13)"/>
            </g>
            <g id="Group_265" data-name="Group 265" transform="translate(466.178 421.86)">
              <path id="Path_311" data-name="Path 311" d="M254.42-532.616C93.3-537.587-48.286-501.809-170.337-434.506-292.388-367.8-394.9-269.578-477.885-163.556c-82.981,106.094-146.427,220-190.338,319.813-43.912,100.569-68.288,187.053-73.13,255.65q-16.2-14.829-33.409-31.32c4.841-66.819,29.218-151.446,73.13-250.708,43.911-98.494,107.357-211.621,190.339-317.655C-428.313-293.711-325.8-392.566-203.746-460.4-81.7-528.818,59.891-566.215,221.012-562.693Q238.218-547.545,254.42-532.616Z" transform="translate(776.237 564.211)" fill="#7f7f7f"/>
              <path id="Path_312" data-name="Path 312" d="M256.683-530.612c-161.121-4.9-302.707,30.951-424.757,98.305-122.051,66.755-224.567,165.013-307.548,271.035C-558.6-55.177-622.049,58.7-665.961,158.461c-43.912,100.518-68.288,186.929-73.13,255.459q-16.245-14.9-33.495-31.465c4.842-66.733,29.219-151.273,73.13-250.473,43.912-98.43,107.357-211.52,190.339-317.546,82.981-105.929,185.5-204.807,307.548-272.686C-79.517-526.712,62.068-564.172,223.189-560.705Q240.438-545.545,256.683-530.612Z" transform="translate(772.585 560.926)" fill="url(#linear-gradient-14)"/>
            </g>
            <g id="Group_266" data-name="Group 266" transform="translate(495.264 447.721)">
              <path id="Path_313" data-name="Path 313" d="M209.924-571.005C48.8-577.52-92.782-543.349-214.833-477.189-336.883-411.645-439.4-314.113-522.381-208.164-605.362-102.158-668.808,12.279-712.72,113.044c-43.911,101.5-68.288,189.332-73.13,259.111q-15.334-13.529-31.672-28.541c4.841-68.383,29.218-154.633,73.13-255.048C-700.48-11.1-637.034-124.921-554.052-231.02-471.072-337.038-368.556-435.342-246.5-502.2c122.051-67.459,263.636-103.472,424.757-98.717Q194.591-585.941,209.924-571.005Z" transform="translate(818.921 602.606)" fill="#7f7f7f"/>
              <path id="Path_314" data-name="Path 314" d="M212.071-569.2C50.95-575.628-90.636-541.372-212.687-475.152c-122.051,65.6-224.567,163.174-307.548,269.131C-603.216-100.008-666.662,14.405-710.573,115.128c-43.912,101.46-68.288,189.228-73.13,258.956q-15.377-13.589-31.758-28.671c4.841-68.314,29.218-154.49,73.13-254.852,43.911-99.608,107.357-213.4,190.339-319.5C-469.012-334.956-366.5-433.291-244.445-500.2c122.051-67.509,263.636-103.6,424.757-98.908Q196.693-584.128,212.071-569.2Z" transform="translate(815.461 599.516)" fill="url(#linear-gradient-15)"/>
            </g>
            <g id="Group_267" data-name="Group 267" transform="translate(522.848 473.291)">
              <path id="Path_315" data-name="Path 315" d="M167.783-605.661c-161.12-8.346-302.706,24.012-424.757,88.86-122.051,64.216-224.567,160.924-307.548,266.669C-647.5-144.347-710.949-29.51-754.861,72.023c-43.911,102.255-68.288,191.207-73.13,261.859q-14.466-12.386-29.936-26.071c4.842-69.616,29.219-157.248,73.13-258.625,43.912-100.637,107.358-215.019,190.339-321.052,82.981-105.966,185.5-203.6,307.548-269.322,122.051-66.341,263.637-100.779,424.757-94.524Q153.318-620.752,167.783-605.661Z" transform="translate(859.252 637.697)" fill="#7f7f7f"/>
              <path id="Path_316" data-name="Path 316" d="M169.813-604.028c-161.12-8.248-302.706,24.205-424.757,89.122C-377-450.62-479.511-353.868-562.492-248.111-645.473-142.31-708.92-27.491-752.831,74.009c-43.911,102.222-68.288,191.123-73.129,261.739q-14.51-12.437-30.022-26.186C-851.141,240-826.764,152.429-782.852,51.1-738.941-49.5-675.495-163.854-592.514-269.893c82.981-105.971,185.5-203.638,307.548-269.424,122.051-66.4,263.636-100.921,424.757-94.746Q155.3-619.108,169.813-604.028Z" transform="translate(855.982 634.77)" fill="url(#linear-gradient-16)"/>
            </g>
            <g id="Group_268" data-name="Group 268" transform="translate(548.929 498.782)">
              <path id="Path_317" data-name="Path 317" d="M128-636.97c-161.121-10.482-302.707,19.841-424.758,83.2C-418.813-491.054-521.329-395.3-604.31-289.895-687.291-184.459-750.737-69.353-794.649,32.781c-43.911,102.84-68.288,192.707-73.129,263.942q-13.6-11.4-28.2-23.919c4.842-70.535,29.219-159.324,73.13-261.481C-778.936-90.11-715.489-204.911-632.509-310.744c82.982-105.782,185.5-202.608,307.548-267.034C-202.91-642.835-61.324-675.492,99.8-667.452Q114.4-652.361,128-636.97Z" transform="translate(897.229 669.914)" fill="#7f7f7f"/>
              <path id="Path_318" data-name="Path 318" d="M129.909-635.493c-161.12-10.369-302.706,20.061-424.757,83.5C-416.9-489.2-519.414-393.4-602.4-287.973-685.377-182.517-748.823-67.421-792.735,34.687c-43.911,102.815-68.288,192.641-73.13,263.854q-13.64-11.446-28.285-24.017c4.842-70.5,29.219-159.234,73.13-261.356C-777.108-88.23-713.661-203.014-630.68-308.86c82.981-105.794,185.5-202.663,307.548-267.158,122.051-65.124,263.636-97.874,424.757-89.929Q116.269-650.867,129.909-635.493Z" transform="translate(894.149 667.118)" fill="url(#linear-gradient-17)"/>
            </g>
            <g id="Group_269" data-name="Group 269" transform="translate(573.509 524.39)">
              <path id="Path_319" data-name="Path 319" d="M90.563-665.32c-161.12-12.939-302.706,15.119-424.757,76.808C-456.244-527.484-558.76-432.825-641.742-327.879S-788.169-107.665-832.081-5.087c-43.911,103.269-68.288,193.86-73.13,265.412q-12.729-10.58-26.462-22.089c4.841-71.163,29.218-160.9,73.129-263.665,43.912-102.06,107.358-217.152,190.339-322.654,82.981-105.467,185.5-201.357,307.548-264.308C-238.6-675.987-97.019-706.645,64.1-696.518Q77.835-681.151,90.563-665.32Z" transform="translate(932.849 699.693)" fill="#7f7f7f"/>
              <path id="Path_320" data-name="Path 320" d="M92.36-663.98c-161.12-12.81-302.706,15.365-424.757,77.142-122.051,61.115-224.567,155.831-307.548,260.8S-786.372-105.8-830.284-3.24c-43.911,103.251-68.288,193.811-73.13,265.353q-12.771-10.617-26.548-22.171c4.841-71.139,29.218-160.831,73.13-263.572,43.911-102.032,107.357-217.113,190.339-322.635C-583.512-451.751-481-547.69-358.945-610.718c122.051-63.673,263.636-94.436,424.757-84.419Q79.589-679.787,92.36-663.98Z" transform="translate(929.961 696.997)" fill="url(#linear-gradient-18)"/>
            </g>
            <g id="Group_270" data-name="Group 270" transform="translate(596.587 550.291)">
              <path id="Path_321" data-name="Path 321" d="M55.486-691.089c-161.12-15.733-302.706,9.819-424.757,69.649C-491.322-562.287-593.838-468.855-676.819-364.5S-823.246-144.849-867.158-41.968c-43.911,103.556-68.288,194.7-73.13,266.32q-11.86-9.922-24.726-20.583c4.842-71.52,29.219-162.007,73.13-265.227,43.911-102.527,107.357-217.787,190.339-322.831C-618.564-489.312-516.048-584.131-394-645.426-271.946-707.38-130.36-735.81,30.761-723.276Q43.626-707.492,55.486-691.089Z" transform="translate(966.116 727.472)" fill="#7f7f7f"/>
              <path id="Path_322" data-name="Path 322" d="M57.166-689.869c-161.12-15.587-302.707,10.094-424.757,70.021C-489.642-560.6-592.158-467.1-675.139-362.711S-821.567-143.029-865.478-40.161c-43.911,103.544-68.288,194.662-73.13,266.288q-11.9-9.951-24.812-20.65c4.842-71.508,29.218-161.962,73.13-265.163,43.911-102.508,107.357-217.762,190.339-322.831,82.981-105.048,185.5-199.923,307.548-261.3C-270.352-705.863-128.766-734.409,32.355-722Q45.263-706.241,57.166-689.869Z" transform="translate(963.419 724.847)" fill="url(#linear-gradient-19)"/>
            </g>
            <g id="Group_271" data-name="Group 271" transform="translate(618.163 576.639)">
              <path id="Path_323" data-name="Path 323" d="M22.763-714.653c-161.121-18.876-302.707,3.918-424.757,61.7C-524.045-595.871-626.561-503.8-709.542-400.15-792.524-296.517-855.97-181.289-899.881-78.236c-43.912,103.714-68.288,195.252-73.13,266.727-7.328-6.284-14.992-12.729-22.989-19.4,4.841-71.628,29.218-162.692,73.13-266.22C-878.959-199.984-815.513-315.3-732.531-419.758s185.5-198.068,307.548-257.518C-302.933-737.4-161.347-763.363-.226-748.089Q11.77-731.754,22.763-714.653Z" transform="translate(997.028 753.696)" fill="#7f7f7f"/>
              <path id="Path_324" data-name="Path 324" d="M24.326-713.533c-161.121-18.713-302.707,4.224-424.757,62.108C-522.482-594.232-625-502.093-707.979-398.4-790.96-294.732-854.406-179.5-898.318-76.45c-43.912,103.708-68.288,195.231-73.13,266.717-7.357-6.3-15.048-12.759-23.075-19.455C-989.681,99.183-965.3,8.145-921.393-95.372c43.912-102.837,107.358-218.152,190.339-322.643s185.5-198.162,307.548-257.708c122.051-60.22,263.637-86.31,424.757-71.179Q13.291-730.6,24.326-713.533Z" transform="translate(994.522 751.112)" fill="url(#linear-gradient-20)"/>
            </g>
            <g id="Group_272" data-name="Group 272" transform="translate(638.237 603.566)">
              <path id="Path_325" data-name="Path 325" d="M-7.606-736.372c-161.121-22.383-302.707-2.605-424.758,52.924C-554.414-628.626-656.93-538.053-739.912-435.22c-82.981,102.8-146.427,217.868-190.339,320.982-43.911,103.759-68.288,195.56-73.129,266.689-6.75-6.062-13.834-12.222-21.252-18.551,4.841-71.512,29.218-163,73.129-266.7,43.912-103.043,107.358-218.307,190.339-322.064s185.5-196.039,307.548-253.451c122.051-58.1,263.637-81.348,424.757-62.986Q-17.73-754.289-7.606-736.372Z" transform="translate(1025.587 778.802)" fill="#7f7f7f"/>
              <path id="Path_326" data-name="Path 326" d="M-6.158-735.335c-161.12-22.2-302.706-2.268-424.757,53.378-122.051,54.938-224.567,145.589-307.548,248.465C-821.444-330.651-884.89-215.571-928.8-112.458c-43.911,103.759-68.288,195.55-73.13,266.7-6.778-6.071-13.891-12.242-21.338-18.585,4.842-71.523,29.219-162.989,73.13-266.688,43.912-103.036,107.358-218.305,190.339-322.1s185.5-196.145,307.548-253.663C-330.2-765-188.617-788.386-27.5-770.185Q-16.325-753.209-6.158-735.335Z" transform="translate(1023.27 776.232)" fill="url(#linear-gradient-21)"/>
            </g>
            <g id="Group_273" data-name="Group 273" transform="translate(656.81 631.185)">
              <path id="Path_327" data-name="Path 327" d="M-35.619-756.6c-161.121-26.265-302.707-9.769-424.757,43.313-122.051,52.359-224.567,141.3-307.548,243.212-82.981,101.857-146.428,216.689-190.339,319.766-43.912,103.707-68.288,195.659-73.13,266.273-6.171-5.947-12.676-11.93-19.516-18.02,4.842-71.2,29.219-162.962,73.13-266.728,43.912-103.12,107.358-218.24,190.339-321.178,82.981-102.964,185.5-193.762,307.548-248.941,122.051-55.886,263.637-76.154,424.757-54.343Q-44.876-775.44-35.619-756.6Z" transform="translate(1051.789 803.228)" fill="#7f7f7f"/>
              <path id="Path_328" data-name="Path 328" d="M-34.289-755.629c-161.121-26.064-302.706-9.4-424.757,43.808C-581.1-659.334-683.613-570.305-766.594-468.349-849.575-366.444-913.022-251.6-956.933-148.517c-43.912,103.711-68.288,195.659-73.13,266.3-6.2-5.95-12.733-11.939-19.6-18.038,4.841-71.215,29.218-162.971,73.13-266.736C-932.623-270.109-869.177-385.238-786.2-488.22c82.981-103.007,185.5-193.88,307.548-249.175,122.051-56,263.637-76.422,424.758-54.791Q-43.588-774.419-34.289-755.629Z" transform="translate(1049.664 800.644)" fill="url(#linear-gradient-22)"/>
            </g>
            <g id="Group_274" data-name="Group 274" transform="translate(673.879 659.582)">
              <path id="Path_329" data-name="Path 329" d="M-61.279-775.676c-161.121-30.531-302.707-17.59-424.758,32.845-122.051,49.7-224.567,136.885-307.548,237.77-82.981,100.818-146.427,215.344-190.339,318.306-43.911,103.576-68.288,195.589-73.129,265.543-5.592-5.935-11.519-11.847-17.78-17.8,4.842-70.705,29.219-162.638,73.13-266.367,43.912-103.1,107.358-217.99,190.339-320,82.981-102.055,185.5-191.245,307.548-243.993,122.051-53.47,263.637-70.5,424.757-44.865Q-69.667-795.534-61.279-775.676Z" transform="translate(1075.638 827.399)" fill="#7f7f7f"/>
              <path id="Path_330" data-name="Path 330" d="M-60.064-774.755c-161.12-30.311-302.706-17.187-424.757,33.383C-606.872-691.539-709.389-604.26-792.369-503.323-875.35-402.451-938.8-287.909-982.708-184.94c-43.911,103.584-68.288,195.6-73.13,265.586-5.62-5.933-11.575-11.846-17.865-17.808,4.842-70.733,29.219-162.66,73.13-266.392,43.912-103.1,107.358-218.007,190.339-320.069,82.982-102.1,185.5-191.375,307.548-244.248C-380.635-821.465-239.05-838.66-77.93-813.225Q-68.494-794.561-60.064-774.755Z" transform="translate(1073.703 824.778)" fill="url(#linear-gradient-23)"/>
            </g>
            <g id="Group_275" data-name="Group 275" transform="translate(689.448 688.828)">
              <path id="Path_331" data-name="Path 331" d="M-84.583-793.932c-161.12-35.193-302.706-26.083-424.757,21.5C-631.391-725.6-733.907-640.286-816.888-540.514c-82.981,99.691-146.427,213.856-190.339,316.643-43.911,103.385-68.288,195.391-73.13,264.572-5.012-6.026-10.36-11.971-16.042-17.9,4.841-70.067,29.218-162.073,73.13-265.682,43.911-102.993,107.357-217.59,190.339-318.58,82.981-101.046,185.5-188.5,307.548-238.616,122.051-50.854,263.636-64.371,424.757-34.531Q-92.1-814.9-84.583-793.932Z" transform="translate(1097.131 851.736)" fill="#7f7f7f"/>
              <path id="Path_332" data-name="Path 332" d="M-83.485-793.042C-244.606-828-386.192-818.689-508.243-770.957c-122.051,46.98-224.567,132.385-307.548,232.214-82.981,99.748-146.427,213.933-190.338,316.729-43.912,103.4-68.288,195.4-73.13,264.624-5.042-6.019-10.418-11.959-16.129-17.889,4.842-70.1,29.219-162.105,73.13-265.722C-978.347-344-914.9-458.613-831.919-559.657c82.981-101.1,185.5-188.64,307.548-238.892,122.051-50.988,263.637-64.685,424.757-35.063Q-91.048-813.949-83.485-793.042Z" transform="translate(1095.388 849.053)" fill="url(#linear-gradient-24)"/>
            </g>
            <g id="Group_276" data-name="Group 276" transform="translate(703.515 718.969)">
              <path id="Path_333" data-name="Path 333" d="M-105.533-811.681C-266.654-851.94-408.24-846.942-530.291-802.4-652.342-758.632-754.858-675.321-837.839-576.74c-82.981,98.485-146.428,212.251-190.339,314.821-43.912,103.154-68.288,195.11-73.13,263.43-4.434-6.214-9.2-12.291-14.306-18.3,4.841-69.309,29.218-161.317,73.13-264.744,43.911-102.825,107.357-217.07,190.338-316.946,82.981-99.947,185.5-185.539,307.548-232.824,122.051-48.037,263.637-57.766,424.758-23.327Q-112.185-833.821-105.533-811.681Z" transform="translate(1116.27 876.641)" fill="#7f7f7f"/>
              <path id="Path_334" data-name="Path 334" d="M-104.552-810.811c-161.12-40-302.706-34.79-424.757,9.9-122.05,43.926-224.567,127.34-307.548,225.981-82.981,98.545-146.427,212.333-190.339,314.914-43.911,103.165-68.288,195.125-73.129,263.49-4.463-6.2-9.261-12.271-14.392-18.27,4.841-69.348,29.218-161.358,73.129-264.794,43.912-102.836,107.358-217.1,190.339-317.03,82.981-100,185.5-185.691,307.548-233.121,122.051-48.181,263.637-58.1,424.758-23.9Q-111.246-832.892-104.552-810.811Z" transform="translate(1114.717 873.877)" fill="url(#linear-gradient-25)"/>
            </g>
            <g id="Group_277" data-name="Group 277" transform="translate(716.079 750.036)">
              <path id="Path_335" data-name="Path 335" d="M-124.128-829.232c-161.12-45.736-302.706-45.133-424.757-3.839-122.05,40.51-224.566,121.712-307.548,219.035-82.981,97.211-146.427,210.556-190.339,312.889-43.911,102.9-68.288,194.791-73.129,262.2-3.855-6.5-8.045-12.8-12.57-18.981,4.841-68.46,29.218-160.424,73.13-263.623C-1015.43-424.17-951.984-538.02-869-636.7c82.981-98.769,185.5-182.381,307.548-226.634,122.051-45.02,263.636-50.682,424.757-11.241Q-129.911-852.608-124.128-829.232Z" transform="translate(1133.054 902.507)" fill="#7f7f7f"/>
              <path id="Path_336" data-name="Path 336" d="M-123.264-828.363c-161.121-45.456-302.707-44.629-424.758-3.17-122.051,40.676-224.567,121.985-307.547,219.372C-938.55-514.886-1002-401.52-1045.908-299.174c-43.912,102.914-68.288,194.807-73.13,262.257-3.884-6.48-8.1-12.773-12.656-18.94,4.842-68.5,29.219-160.47,73.13-263.681,43.912-102.626,107.358-216.5,190.339-315.238,82.981-98.828,185.5-182.541,307.548-226.949,122.051-45.175,263.637-51.044,424.757-11.86Q-129.089-851.678-123.264-828.363Z" transform="translate(1131.693 899.639)" fill="url(#linear-gradient-26)"/>
            </g>
            <g id="Group_278" data-name="Group 278" transform="translate(727.142 782.042)">
              <path id="Path_337" data-name="Path 337" d="M-140.37-846.878c-161.121-51.631-302.707-55.71-424.757-17.855C-687.178-827.679-789.694-748.69-872.675-652.681c-82.981,95.883-146.427,208.8-190.338,310.9-43.912,102.651-68.288,194.483-73.13,260.946a218.009,218.009,0,0,0-10.833-19.94c4.841-67.55,29.218-159.448,73.13-262.4,43.911-102.379,107.357-215.81,190.338-313.227,82.981-97.52,185.5-179.04,307.548-220.063,122.051-41.806,263.637-43.116,424.757,1.737Q-145.284-871.535-140.37-846.878Z" transform="translate(1147.484 929.701)" fill="#7f7f7f"/>
              <path id="Path_338" data-name="Path 338" d="M-139.621-846c-161.12-51.33-302.706-55.17-424.757-17.141-122.051,37.231-224.567,116.33-307.548,212.407-82.981,95.949-146.427,208.888-190.339,311-43.911,102.663-68.288,194.5-73.13,261.007a218.323,218.323,0,0,0-10.918-19.887c4.841-67.6,29.218-159.5,73.129-262.459,43.912-102.391,107.358-215.843,190.339-313.325,82.982-97.583,185.5-179.209,307.548-220.4,122.051-41.97,263.637-43.5,424.758,1.074Q-144.579-870.591-139.621-846Z" transform="translate(1146.313 926.713)" fill="url(#linear-gradient-27)"/>
            </g>
          </g>
        </g>
      </g>
    </g>
  </g>
</svg>
