<svg xmlns="http://www.w3.org/2000/svg" xmlns:xlink="http://www.w3.org/1999/xlink" width="375" height="667" viewBox="0 0 375 667"><defs><linearGradient id="a" x1="0.5" x2="0.5" y2="1" gradientUnits="objectBoundingBox"><stop offset="0" stop-color="#259821"/><stop offset="1" stop-color="#114a4c"/></linearGradient><filter id="b" x="-1.5" y="-0.5" width="378" height="670" filterUnits="userSpaceOnUse"><feOffset dy="1" input="SourceAlpha"/><feGaussianBlur stdDeviation="0.5" result="c"/><feFlood flood-opacity="0.102"/><feComposite operator="in" in2="c"/><feComposite in="SourceGraphic"/></filter><clipPath id="d"><g transform="matrix(1, 0, 0, 1, 0, 0)" filter="url(#b)"><rect width="375" height="667" fill="url(#a)"/></g></clipPath><radialGradient id="e" cx="0.5" cy="0.5" r="0.5" xlink:href="#a"/><filter id="f" x="-560.5" y="-747.5" width="1497" height="1497" filterUnits="userSpaceOnUse"><feOffset dy="1" input="SourceAlpha"/><feGaussianBlur stdDeviation="0.5" result="g"/><feFlood flood-opacity="0.102"/><feComposite operator="in" in2="g"/><feComposite in="SourceGraphic"/></filter><clipPath id="h"><rect width="1123.507" height="749.104" fill="none"/></clipPath><linearGradient id="i" x1="0.429" y1="0.412" x2="0.629" y2="0.659" gradientUnits="objectBoundingBox"><stop offset="0" stop-color="#afafaf"/><stop offset="1" stop-color="#fefefe"/></linearGradient><linearGradient id="j" x1="0.435" y1="0.422" x2="0.633" y2="0.661" xlink:href="#i"/><linearGradient id="k" x1="0.441" y1="0.432" x2="0.637" y2="0.663" xlink:href="#i"/><linearGradient id="l" x1="0.446" y1="0.44" x2="0.64" y2="0.665" xlink:href="#i"/><linearGradient id="m" x1="0.451" y1="0.447" x2="0.644" y2="0.666" xlink:href="#i"/><linearGradient id="n" x1="0.456" y1="0.454" x2="0.647" y2="0.667" xlink:href="#i"/><linearGradient id="o" x1="0.46" y1="0.459" x2="0.65" y2="0.668" xlink:href="#i"/><linearGradient id="p" x1="0.464" y1="0.464" x2="0.652" y2="0.67" xlink:href="#i"/><linearGradient id="q" x1="0.467" y1="0.468" x2="0.655" y2="0.671" xlink:href="#i"/><linearGradient id="r" x1="0.469" y1="0.47" x2="0.657" y2="0.672" xlink:href="#i"/><linearGradient id="s" x1="0.471" y1="0.473" x2="0.66" y2="0.673" xlink:href="#i"/><linearGradient id="t" x1="0.473" y1="0.474" x2="0.662" y2="0.674" xlink:href="#i"/><linearGradient id="u" x1="0.475" y1="0.474" x2="0.665" y2="0.674" xlink:href="#i"/><linearGradient id="v" x1="0.475" y1="0.473" x2="0.667" y2="0.675" xlink:href="#i"/><linearGradient id="w" x1="0.475" y1="0.472" x2="0.669" y2="0.677" xlink:href="#i"/><linearGradient id="x" x1="0.475" y1="0.47" x2="0.671" y2="0.678" xlink:href="#i"/><linearGradient id="y" x1="0.473" y1="0.468" x2="0.673" y2="0.681" xlink:href="#i"/><linearGradient id="z" x1="0.471" y1="0.465" x2="0.674" y2="0.683" xlink:href="#i"/><linearGradient id="aa" x1="0.468" y1="0.461" x2="0.676" y2="0.686" xlink:href="#i"/><linearGradient id="ab" x1="0.464" y1="0.456" x2="0.677" y2="0.689" xlink:href="#i"/><linearGradient id="ac" x1="0.46" y1="0.45" x2="0.679" y2="0.692" xlink:href="#i"/><linearGradient id="ad" x1="0.455" y1="0.443" x2="0.68" y2="0.695" xlink:href="#i"/><linearGradient id="ae" x1="0.45" y1="0.435" x2="0.682" y2="0.698" xlink:href="#i"/><linearGradient id="af" x1="0.445" y1="0.425" x2="0.685" y2="0.701" xlink:href="#i"/><linearGradient id="ag" x1="0.439" y1="0.413" x2="0.687" y2="0.704" xlink:href="#i"/><linearGradient id="ah" x1="0.433" y1="0.4" x2="0.69" y2="0.706" xlink:href="#i"/></defs><g clip-path="url(#d)"><g transform="matrix(1, 0, 0, 1, 0, 0)" filter="url(#f)"><circle cx="747" cy="747" r="747" transform="translate(-559 -747)" fill="url(#e)"/></g><g transform="translate(-374.08 -41)" style="mix-blend-mode:multiply;isolation:isolate"><g transform="translate(0.08)" clip-path="url(#h)"><g transform="translate(-1074.081 -869.048)"><g transform="translate(1000.981 1141.91)"><path d="M-77.986,1458.616c236.524,1.793,444.372-64.052,623.542-169.948,179.171-105.283,329.663-250.616,451.479-393.606,121.816-143.366,214.956-284.405,279.417-389.9q96.692-160.3,107.354-213.766,39.081,58.923,79.635,122.235-10.661,36.5-107.354,187.173c-64.461,99.013-157.6,236.011-279.416,377.164-121.816,140.741-272.31,285.654-451.481,391.193C446.022,1475.29,238.174,1542.04,1.649,1539.989Q-38.9,1497.711-77.986,1458.616Z" transform="translate(77.986 -291.401)" fill="#7f7f7f"/><path d="M-74.411,1462.315c236.524,1.806,444.373-64.076,623.542-169.979,179.171-105.293,329.663-250.609,451.48-393.505,121.817-143.272,214.956-284.143,279.417-389.364q96.694-159.9,107.354-212.67,39.144,59.11,79.762,122.61Q1456.482,455.156,1359.79,605.4c-64.462,98.725-157.6,235.544-279.417,376.6-121.817,140.642-272.31,285.541-451.48,391.092C449.722,1479.226,241.875,1546.016,5.351,1543.956Q-35.268,1501.539-74.411,1462.315Z" transform="translate(77.759 -291.744)" fill="url(#i)"/></g><g transform="translate(934.484 1043.252)"><path d="M-149,1386.461c236.524,1.518,444.372-63.631,623.542-169.364C653.711,1112,804.2,966.314,926.021,821.474c121.816-145.193,214.955-289.562,279.417-400.306q96.692-168.145,107.354-235.129Q1350.6,241.2,1389.879,300.7q-10.662,51.184-107.354,210.3c-64.462,104.653-157.6,245.185-279.417,388.261C881.291,1041.952,730.8,1187.2,551.628,1292.5,372.457,1398.416,164.61,1464.379-71.914,1462.545Q-111.195,1423-149,1386.461Z" transform="translate(149.001 -186.039)" fill="#7f7f7f"/><path d="M-145.543,1389.918C90.982,1391.45,298.829,1326.268,478,1220.527,657.17,1115.419,807.663,969.753,929.479,825,1051.3,679.9,1144.435,535.69,1208.9,425.2q96.693-167.769,107.354-234.107,37.87,55.343,77.213,115.037-10.662,50.482-107.354,209.192c-64.461,104.381-157.6,244.742-279.417,387.725-121.816,142.592-272.309,287.826-451.48,393.139C376.043,1402.1,168.194,1468.1-68.33,1466.256Q-107.673,1426.582-145.543,1389.918Z" transform="translate(148.781 -186.36)" fill="url(#j)"/></g><g transform="translate(870.192 951.057)"><path d="M-217.662,1319.008c236.525,1.241,444.373-63.249,623.542-168.831,179.171-104.925,329.664-250.944,451.48-397.532,121.816-146.918,214.955-294.425,279.416-410.088q96.693-175.489,107.355-254.975,36.532,51.451,74.537,107.181-10.662,64.8-107.354,231.9c-64.462,109.959-157.6,253.848-279.417,398.767C810.082,969.981,659.589,1115.582,480.418,1220.7c-179.171,105.745-387.018,171-623.542,169.441Q-181.131,1353.171-217.662,1319.008Z" transform="translate(217.662 -87.581)" fill="#7f7f7f"/><path d="M-214.32,1322.239c236.525,1.254,444.373-63.268,623.542-168.858C588.393,1048.447,738.886,902.445,860.7,755.941c121.817-146.836,214.956-294.192,279.417-409.62q96.694-175.137,107.354-254.029,36.595,51.632,74.663,107.549-10.661,64.154-107.353,230.867c-64.462,109.7-157.6,253.431-279.417,398.261-121.817,144.462-272.31,290.046-451.481,395.168C304.716,1329.89,96.868,1395.181-139.656,1393.6Q-177.725,1356.515-214.32,1322.239Z" transform="translate(217.449 -87.881)" fill="url(#k)"/></g><g transform="translate(808.105 865.212)"><path d="M-283.967,1255.933c236.524,1.007,444.372-62.823,623.542-168.234,179.17-104.731,329.663-251.046,451.48-399.264C912.871,539.91,1006.01,389.462,1070.472,269.221,1134.933,147.673,1170.718,56.332,1177.826-4.1q35.256,47.823,71.988,99.829-10.662,77.381-107.355,251.983C1078,462.645,984.859,609.7,863.043,756.365c-121.817,146.317-272.31,292.257-451.481,397.2C232.393,1259.155,24.545,1323.75-211.98,1322.468Q-248.709,1287.905-283.967,1255.933Z" transform="translate(283.967 4.097)" fill="#7f7f7f"/><path d="M-280.742,1258.956c236.524,1.016,444.373-62.846,623.542-168.267C521.971,985.948,672.464,839.647,794.28,691.506,916.1,543.057,1009.236,392.75,1073.7,272.728,1138.158,151.4,1173.943,60.352,1181.051.282q35.319,48,72.114,100.189Q1242.5,177.255,1145.81,351.5c-64.461,114.692-157.6,261.6-279.417,408.176-121.816,146.232-272.309,292.156-451.479,397.1-179.171,105.6-387.018,170.229-623.542,168.933Q-245.422,1291.032-280.742,1258.956Z" transform="translate(283.762 3.818)" fill="url(#l)"/></g><g transform="translate(748.222 785.559)"><path d="M-347.918,1196.9c236.524.857,444.372-62.276,623.542-167.468C454.794,924.938,605.287,778.388,727.1,628.674c121.815-150,214.955-303.181,279.417-427.66,64.461-125.762,100.246-222.822,107.354-290.176q33.982,44.295,69.438,92.654c-7.108,59.288-42.893,149.69-107.354,270.56-64.462,119.562-157.6,269.591-279.417,417.879-121.817,147.967-272.31,294.21-451.48,398.962C165.892,1196.321-41.956,1260.258-278.48,1259.218Q-313.937,1226.875-347.918,1196.9Z" transform="translate(347.918 89.162)" fill="#7f7f7f"/><path d="M-344.81,1199.728c236.525.862,444.372-62.306,623.542-167.511C457.9,927.713,608.4,781.172,730.212,631.529,852.029,481.6,945.168,328.548,1009.63,204.27c64.462-125.562,100.246-222.349,107.353-289.375q34.045,44.466,69.565,93c-7.107,58.923-42.892,149.025-107.354,269.676-64.461,119.34-157.6,269.227-279.417,417.438C677.961,842.9,527.468,989.13,348.3,1093.892,169.127,1199.329-38.72,1263.3-275.245,1262.249Q-310.764,1229.8-344.81,1199.728Z" transform="translate(347.72 88.904)" fill="url(#m)"/></g><g transform="translate(690.544 711.906)"><path d="M-409.515,1141.533c236.524.833,444.372-61.531,623.542-166.43C393.2,870.93,543.69,724.223,665.507,573.159,787.323,421.832,880.462,266.128,944.924,137.752,1009.385,8.114,1045.17-94.2,1052.278-167.819q32.708,40.889,66.889,85.7c-7.108,66.315-42.893,162.509-107.354,287.648C947.351,329.378,854.212,482.175,732.4,631.96c-121.816,149.485-272.31,295.975-451.48,400.495C101.746,1137.673-106.1,1200.92-342.626,1200.047Q-376.807,1169.725-409.515,1141.533Z" transform="translate(409.515 167.819)" fill="#7f7f7f"/><path d="M-406.523,1144.192C-170,1145.023,37.85,1082.617,217.02,977.7,396.19,873.511,546.683,726.81,668.5,575.809,790.316,424.544,883.455,268.96,947.917,140.768c64.461-129.454,100.246-231.515,107.353-304.842q32.771,41.053,67.016,86.037c-7.108,65.984-42.893,161.9-107.354,286.837-64.462,123.647-157.6,276.313-279.417,426.026C613.7,784.237,463.205,930.718,284.035,1035.25c-179.171,105.231-387.018,168.514-623.542,167.635Q-373.752,1172.467-406.523,1144.192Z" transform="translate(409.325 167.581)" fill="url(#n)"/></g><g transform="translate(635.071 644.028)"><path d="M-468.757,1089.464c236.524.977,444.373-60.52,623.542-165.024,179.171-103.757,329.664-250.52,451.48-402.777,121.816-152.5,214.955-310.5,279.417-442.441,64.462-133.176,100.246-240.28,107.354-319.531q31.433,37.62,64.34,79c-7.107,72.687-42.892,174.2-107.354,303.27-64.461,127.8-157.6,283.154-279.417,434.29C548.789,727.108,398.3,873.768,219.125,977.985c-179.17,104.938-387.017,167.432-623.542,166.6Q-437.324,1116.085-468.757,1089.464Z" transform="translate(468.757 240.309)" fill="#7f7f7f"/><path d="M-465.881,1091.969c236.524.965,444.372-60.578,623.542-165.1,179.17-103.78,329.663-250.544,451.48-402.745C730.957,371.678,824.1,213.779,888.558,82.011,953.02-51,988.8-157.876,995.912-236.863q31.5,37.779,64.466,79.325c-7.108,72.386-42.893,173.651-107.354,302.531-64.462,127.616-157.6,282.846-279.417,433.918C551.791,729.7,401.3,876.358,222.127,980.591c-179.171,104.954-387.018,167.487-623.542,166.661Q-434.386,1118.662-465.881,1091.969Z" transform="translate(468.574 240.09)" fill="url(#o)"/></g><g transform="translate(581.803 581.669)"><path d="M-525.644,1040.3c236.524,1.32,444.372-59.174,623.542-163.159,179.17-103.215,329.663-249.921,451.48-403.2,121.816-153.5,214.955-313.59,279.417-448.752,64.461-136.38,100.246-247.83,107.354-332.089q30.158,34.509,61.79,72.594c-7.108,78.414-42.892,184.8-107.354,317.453-64.461,131.414-157.6,289.1-279.417,441.435C489.352,676.653,338.859,823.388,159.688,927.2c-179.17,104.562-387.017,166.2-623.542,165.263Q-495.487,1065.566-525.644,1040.3Z" transform="translate(525.644 306.904)" fill="#7f7f7f"/><path d="M-522.885,1042.668c236.525,1.3,444.372-59.249,623.542-163.263,179.171-103.245,329.664-249.956,451.48-403.19C673.953,322.762,767.092,162.767,831.554,27.757c64.461-136.229,100.246-247.474,107.354-331.5q30.221,34.658,61.916,72.9c-7.107,78.146-42.892,184.3-107.354,316.784-64.461,131.245-157.6,288.825-279.417,441.1C492.238,679.062,341.745,825.8,162.574,929.634c-179.17,104.582-387.017,166.271-623.542,165.339Q-492.663,1068-522.885,1042.668Z" transform="translate(525.468 306.703)" fill="url(#p)"/></g><g transform="translate(530.74 524.547)"><path d="M-580.177,993.628c236.524,1.905,444.372-57.425,623.542-160.745,179.171-102.527,329.663-249.042,451.48-403.171C616.661,275.389,709.8,113.435,774.262-24.626c64.461-139.255,100.246-254.616,107.354-343.281q28.884,31.568,59.241,66.513C933.75-217.876,897.964-107.079,833.5,28.833c-64.461,134.694-157.6,294.5-279.417,447.861C432.27,629.821,281.777,776.515,102.606,879.811c-179.17,104.064-387.017,164.727-623.542,163.475Q-551.293,1017.771-580.177,993.628Z" transform="translate(580.177 367.907)" fill="#7f7f7f"/><path d="M-577.534,995.885c236.524,1.87,444.372-57.523,623.542-160.879,179.17-102.565,329.663-249.093,451.48-403.184C619.3,277.536,712.443,115.668,776.9-22.257c64.461-139.12,100.246-254.3,107.354-342.758q28.947,31.71,59.367,66.805c-7.107,83.28-42.892,193.868-107.353,329.628-64.462,134.539-157.6,294.248-279.417,447.56-121.817,153.079-272.31,299.779-451.48,403.1-179.171,104.091-387.018,164.807-623.542,163.576Q-548.588,1020.078-577.534,995.885Z" transform="translate(580.009 367.723)" fill="url(#q)"/></g><g transform="translate(481.881 472.353)"><path d="M-632.355,949.046c236.524,2.762,444.372-55.214,623.542-157.7C170.358,689.673,320.851,543.492,442.667,388.7,564.483,233.733,657.622,70.139,722.084-70.5c64.461-141.809,100.246-260.66,107.354-353.149q27.608,28.813,56.691,60.786c-7.107,88.016-42.892,202.791-107.353,341.63-64.462,137.642-157.6,299.348-279.417,453.56-121.817,154-272.31,300.529-451.48,403.161C-131.291,938.912-339.139,998.44-575.664,996.642Q-604.745,972.288-632.355,949.046Z" transform="translate(632.355 423.647)" fill="#7f7f7f"/><path d="M-629.829,951.209C-393.3,953.922-185.456,895.874-6.287,793.342c179.171-101.719,329.664-247.921,451.48-402.685C567.01,235.72,660.148,72.2,724.61-68.316c64.462-141.689,100.247-260.378,107.354-352.691q27.671,28.944,56.818,61.06c-7.107,87.807-42.892,202.4-107.354,341.1-64.461,137.5-157.6,299.121-279.416,453.3C380.2,588.408,229.7,734.947,50.532,837.616-128.639,941.073-336.486,1000.661-573.01,998.9Q-602.157,974.491-629.829,951.209Z" transform="translate(632.194 423.479)" fill="url(#r)"/></g><g transform="translate(435.227 424.758)"><path d="M-682.179,906.132c236.525,3.926,444.372-52.48,623.543-153.947,179.17-100.63,329.663-246.321,451.48-401.588C514.66,195.177,607.8,30.163,672.261-112.738c64.461-144.05,100.246-265.985,107.353-361.738q26.334,26.253,54.142,55.439c-7.107,91.929-42.892,210.259-107.354,351.7C661.941,72.933,568.8,236.315,446.986,391.2,325.17,545.892,174.677,692.108-4.493,793.913-183.664,896.529-391.511,954.734-628.036,952.124Q-655.844,928.706-682.179,906.132Z" transform="translate(682.179 474.476)" fill="#7f7f7f"/><path d="M-679.769,908.222c236.525,3.862,444.372-52.628,623.543-154.15,179.17-100.687,329.663-246.406,451.479-401.655C517.07,197.017,610.208,32.068,674.67-110.728c64.462-143.946,100.247-265.739,107.354-361.343q26.4,26.377,54.269,55.7C829.186-324.628,793.4-206.464,728.939-65.142,664.477,75,571.338,238.307,449.522,393.161,327.706,547.826,177.213,694.061-1.958,795.91-181.128,898.571-388.975,956.846-625.5,954.284Q-653.371,930.823-679.769,908.222Z" transform="translate(682.026 474.323)" fill="url(#s)"/></g><g transform="translate(390.778 381.409)"><path d="M-729.648,864.468C-493.123,869.9-285.276,815.3-106.1,715.057c179.17-99.385,329.663-244.416,451.48-399.967C467.191,159.41,560.33-6.807,624.792-151.668c64.461-145.988,100.246-270.621,107.353-369.1q25.06,23.9,51.594,50.5c-7.107,95.28-42.892,216.756-107.354,360.488C611.923,32.795,518.784,197.63,396.968,353,275.152,508.2,124.659,653.947-54.512,754.74c-179.17,101.627-387.017,158.3-623.542,154.574Q-704.588,886.6-729.648,864.468Z" transform="translate(729.648 520.77)" fill="#7f7f7f"/><path d="M-727.354,866.508c236.524,5.345,444.372-49.346,623.542-149.656C75.359,617.4,225.852,472.333,347.668,316.79,469.485,161.119,562.623-5.044,627.085-149.816c64.461-145.9,100.246-270.407,107.354-368.764q25.122,24.014,51.719,50.731c-7.107,95.126-42.892,216.457-107.354,360.082C614.343,34.707,521.2,199.475,399.387,354.821,277.571,510,127.078,655.779-52.093,756.626-231.262,858.308-439.11,915.059-675.635,911.4Q-702.232,888.655-727.354,866.508Z" transform="translate(729.502 520.631)" fill="url(#t)"/></g><g transform="translate(348.534 341.94)"><path d="M-774.762,823.637c236.525,7.3,444.372-45.224,623.542-144.025C27.951,581.694,178.444,437.5,300.261,281.857,422.077,126.112,515.216-41.1,579.677-187.627c64.462-147.635,100.247-274.594,107.354-375.294q23.785,21.769,49.044,45.977c-7.107,98.09-42.892,222.322-107.354,368.039C564.259-4.317,471.12,161.754,349.3,317.412,227.488,472.926,77,618.044-102.176,717.624-281.346,818.061-489.193,872.96-725.718,867.79Q-750.977,845.553-774.762,823.637Z" transform="translate(774.762 562.921)" fill="#7f7f7f"/><path d="M-772.585,825.644c236.525,7.2,444.373-45.436,623.542-144.312,179.171-98,329.664-242.238,451.48-397.878C424.254,127.706,517.393-39.458,581.854-185.913,646.316-333.474,682.1-460.325,689.208-560.926q23.848,21.869,49.17,46.19c-7.108,97.963-42.893,222.068-107.354,367.694-64.462,144.495-157.6,310.51-279.417,466.157-121.817,155.5-272.31,300.657-451.48,400.3-179.171,100.5-387.017,155.493-623.542,150.4Q-748.736,847.565-772.585,825.644Z" transform="translate(774.624 562.794)" fill="url(#u)"/></g><g transform="translate(308.495 305.969)"><path d="M-817.521,783.221C-581,792.784-373.149,742.62-193.979,645.5-14.809,549.28,135.684,406.1,257.5,250.57,379.317,94.954,472.456-73.039,536.918-220.962c64.461-149,100.246-277.938,107.354-380.374q22.51,19.861,46.494,41.9c-7.107,100.386-42.892,227-107.354,374.41-64.461,146.3-157.6,313.4-279.417,469.15C182.179,439.756,31.686,584.067-147.485,682.216c-179.17,99.03-387.017,151.9-623.542,144.916Q-795.011,805.146-817.521,783.221Z" transform="translate(817.521 601.336)" fill="#7f7f7f"/><path d="M-815.461,785.217c236.525,9.442,444.373-40.846,623.543-138.056,179.171-96.308,329.664-239.539,451.48-395.083C381.378,96.45,474.517-71.509,538.978-219.369,603.44-368.311,639.225-497.156,646.332-599.516q22.573,19.949,46.621,42.088c-7.107,100.284-42.892,226.79-107.354,374.122C521.137-37.082,428,129.968,306.182,285.72,184.366,441.353,33.873,585.708-145.3,683.933c-179.17,99.1-387.017,152.079-623.542,145.2Q-792.887,807.137-815.461,785.217Z" transform="translate(817.39 601.22)" fill="url(#v)"/></g><g transform="translate(270.661 273.102)"><path d="M-857.926,742.811c236.524,12.252,444.372-35.249,623.542-130.446C-55.213,518.1,95.28,376.129,217.1,220.9,338.912,65.6,432.051-102.976,496.513-252.027c64.461-150.11,100.246-280.691,107.354-384.409q21.236,18.182,43.945,38.273c-7.108,102.2-42.893,230.84-107.354,379.66C476-70.768,382.857,97.144,261.041,252.8,139.225,408.357-11.269,551.677-190.438,648.164c-179.171,97.388-387.018,147.943-623.542,138.76Q-836.691,764.965-857.926,742.811Z" transform="translate(857.926 636.436)" fill="#7f7f7f"/><path d="M-855.982,744.817c236.524,12.107,444.372-35.533,623.542-130.83,179.17-94.372,329.663-236.4,451.48-391.655C340.856,67.017,433.995-101.537,498.457-250.538,562.918-400.6,598.7-531.107,605.81-634.77q21.3,18.258,44.072,38.441C642.775-494.212,606.99-365.66,542.528-216.9,478.066-69.233,384.927,98.644,263.111,254.308,141.3,409.874-9.2,553.248-188.369,649.822-367.539,747.3-575.386,797.974-811.911,788.91Q-834.684,766.955-855.982,744.817Z" transform="translate(857.802 636.33)" fill="url(#w)"/></g><g transform="translate(235.031 242.936)"><path d="M-895.977,702.009C-659.452,717.4-451.6,672.882-272.434,579.869-93.264,487.805,57.229,347.244,179.046,192.5,300.862,37.725,394-131.252,458.463-281.184c64.461-150.969,100.246-282.894,107.353-387.467q19.962,16.737,41.4,35.113C600.1-529.993,564.32-399.65,499.858-249.684,435.4-100.78,342.257,67.748,220.441,223.11,98.625,378.4-51.868,520.537-231.038,615.115c-179.17,95.5-387.018,143.443-623.542,131.64Q-876.016,724.6-895.977,702.009Z" transform="translate(895.977 668.651)" fill="#7f7f7f"/><path d="M-894.149,704.043c236.524,15.222,444.372-29.449,623.542-122.576,179.17-92.178,329.663-232.814,451.48-387.583C302.689,39.075,395.828-129.887,460.29-279.78c64.461-150.932,100.246-282.8,107.354-387.338q20.023,16.8,41.522,35.257c-7.108,103.49-42.893,233.755-107.354,383.67C437.349-99.338,344.21,69.165,222.395,224.546,100.579,379.851-49.914,522.054-229.085,616.733c-179.171,95.6-387.017,143.678-623.542,132.016Q-874.125,726.611-894.149,704.043Z" transform="translate(895.861 668.554)" fill="url(#x)"/></g><g transform="translate(201.606 215.062)"><path d="M-931.672,660.425C-695.148,679.419-487.3,638.23-308.13,547.67c179.17-89.588,329.663-228.547,451.48-382.608S358.3-158.211,422.767-308.795c64.461-151.6,100.246-284.586,107.354-389.624q18.686,15.532,38.846,32.426c-7.107,104.467-42.892,236.2-107.353,387.059C397.151-129.11,304.012,39.845,182.2,194.721c-121.817,154.825-272.31,295.591-451.48,388C-448.454,676.084-656.3,721.09-892.825,706.223Q-912.987,683.664-931.672,660.425Z" transform="translate(931.672 698.419)" fill="#7f7f7f"/><path d="M-929.961,662.506c236.524,18.805,444.372-22.557,623.542-113.245C-127.249,459.544,23.244,320.5,145.061,166.4,266.877,12.288,360.016-156.9,424.478-307.46,488.939-459.033,524.724-591.974,531.832-697q18.748,15.586,38.972,32.548c-7.107,104.432-42.892,236.1-107.354,386.924C398.989-127.742,305.85,41.2,184.033,196.1,62.218,350.953-88.276,491.791-267.447,584.317c-179.17,93.471-387.017,138.631-623.542,123.926Q-911.212,685.71-929.961,662.506Z" transform="translate(931.563 698.328)" fill="url(#y)"/></g><g transform="translate(170.387 189.067)"><path d="M-965.013,617.685c236.524,23.1,444.371-14.414,623.542-102.244C-162.3,428.6-11.808,291.447,110.009,138.248S324.964-184.195,389.426-335.222C453.887-487.242,489.672-621.037,496.78-726.18q17.411,14.565,36.3,30.216c-7.108,104.991-42.893,237.826-107.354,389.353C361.261-156.1,268.122,13.1,146.306,167.3,24.49,321.477-126,460.671-305.174,550.652-484.344,641.6-692.191,683.336-928.716,664.936Q-947.6,641.765-965.013,617.685Z" transform="translate(965.013 726.18)" fill="#7f7f7f"/><path d="M-963.419,619.832c236.524,22.881,444.372-14.818,623.542-102.791C-160.706,430.061-10.213,292.81,111.6,139.565s214.956-322.492,279.417-473.5c64.461-152,100.246-285.764,107.354-390.91q17.474,14.608,36.423,30.314c-7.108,104.973-42.892,237.76-107.354,389.259C362.982-154.793,269.843,14.4,148.026,168.642,26.211,322.852-124.283,462.129-303.453,552.236-482.623,643.311-690.471,685.217-927,667Q-945.945,643.866-963.419,619.832Z" transform="translate(964.912 726.095)" fill="url(#z)"/></g><g transform="translate(141.371 164.536)"><path d="M-996,573.435c236.525,27.71,444.372-5.751,623.542-90.57,179.171-83.8,329.664-218.959,451.48-371.12C200.839-40.388,293.978-209.542,358.439-360.824,422.9-513.076,458.686-647.454,465.793-752.378c10.758,9.225,22.008,18.685,33.748,28.486-7.107,105.15-42.892,238.831-107.354,390.81C327.726-182.1,234.587-12.817,112.77,140.53S-159.539,431.294-338.71,518.566c-179.17,88.263-387.017,126.375-623.542,103.953Q-979.862,598.54-996,573.435Z" transform="translate(996 752.378)" fill="#7f7f7f"/><path d="M-994.522,575.664C-758,603.135-550.15,569.464-370.98,484.49-191.809,400.531-41.316,265.27,80.5,113.053,202.317-39.135,295.456-208.3,359.917-359.572c64.462-152.243,100.247-286.6,107.354-391.54,10.8,9.246,22.091,18.73,33.874,28.561C494.037-617.4,458.253-483.757,393.791-331.8,329.329-180.83,236.19-11.549,114.374,141.844s-272.31,290.9-451.48,378.315c-179.171,88.4-387.018,126.7-623.542,104.491Q-978.323,600.715-994.522,575.664Z" transform="translate(995.906 752.298)" fill="url(#aa)"/></g><g transform="translate(114.561 141.056)"><path d="M-1024.632,527.337c236.525,32.859,444.372,3.824,623.543-77.692,179.17-80.478,329.663-213.439,451.48-364.4,121.816-150.907,214.955-319.83,279.417-471.2,64.461-152.317,100.246-287.081,107.353-391.5,9.909,8.9,20.308,17.942,31.2,27.233-7.107,104.979-42.892,239.277-107.353,391.515C296.544-207.438,203.4-38.231,81.589,114.083S-190.72,401.868-369.89,486.149c-179.171,85.3-387.018,119.419-623.542,92.463Q-1009.769,553.639-1024.632,527.337Z" transform="translate(1024.632 777.453)" fill="#7f7f7f"/><path d="M-1023.27,529.666c236.524,32.592,444.372,3.329,623.542-78.358,179.17-80.65,329.663-213.724,451.48-364.746C173.568-64.41,266.707-233.347,331.169-384.716,395.63-537.034,431.415-671.783,438.523-776.232c9.95,8.912,20.392,17.971,31.325,27.283-7.108,105-42.893,239.268-107.354,391.5C298.031-206.194,204.892-36.98,83.077,115.389S-189.233,403.329-368.4,487.766c-179.171,85.449-387.018,119.778-623.543,93.059Q-1008.345,555.905-1023.27,529.666Z" transform="translate(1024.545 777.375)" fill="url(#ab)"/></g><g transform="translate(89.955 118.219)"><path d="M-1050.909,479.081c236.525,38.556,444.373,14.341,623.542-63.584C-248.2,338.634-97.7,208.062,24.113,58.462,145.93-91.064,239.069-259.636,303.53-410.954,367.992-563.2,403.777-698.181,410.884-801.842c9.059,8.731,18.609,17.513,28.65,26.454-7.108,104.514-42.893,239.227-107.354,391.556C267.717-232.452,174.578-63.457,52.762,87.657-69.054,238.808-219.547,372.1-398.717,453.1c-179.171,82.04-387.018,111.794-623.543,79.775Q-1037.321,506.736-1050.909,479.081Z" transform="translate(1050.909 801.842)" fill="#7f7f7f"/><path d="M-1049.664,481.523c236.525,38.261,444.371,13.8,623.542-64.311C-246.951,340.163-96.458,209.469,25.358,59.8,147.175-89.8,240.314-258.392,304.775-409.714c64.462-152.248,100.246-287.226,107.354-390.93,9.1,8.735,18.692,17.526,28.775,26.48C433.8-669.62,398.012-534.924,333.55-382.6,269.089-231.218,175.95-62.209,54.134,88.968c-121.817,151.214-272.31,284.616-451.48,365.788-179.171,82.209-387.018,112.188-623.543,80.432Q-1036.013,509.108-1049.664,481.523Z" transform="translate(1050.83 801.766)" fill="url(#ac)"/></g><g transform="translate(67.554 95.624)"><path d="M-1074.832,428.378C-838.307,473.2-630.46,454.2-451.289,380.162-272.119,307.209-121.626,179.215.191,31.117c121.816-148,214.955-316.124,279.417-467.272C344.069-588.2,379.854-723.279,386.961-825.972c8.209,8.713,16.909,17.391,26.1,26.137-7.108,103.795-42.893,238.753-107.354,391.026C241.245-257.463,148.106-88.8,26.291,60.957-95.525,210.774-246.019,341.7-425.189,419.138-604.36,497.631-812.207,522.629-1048.731,485Q-1062.519,457.53-1074.832,428.378Z" transform="translate(1074.832 825.972)" fill="#7f7f7f"/><path d="M-1073.7,430.949c236.524,44.5,444.372,25.231,623.543-49.006C-270.991,308.788-120.5,180.662,1.319,32.487,123.135-115.592,216.274-283.74,280.736-434.9,345.2-586.96,380.982-722.033,388.09-824.778c8.25,8.71,16.992,17.391,26.226,26.143C407.208-694.8,371.423-559.851,306.962-407.572,242.5-256.22,149.361-87.538,27.545,62.289c-121.817,149.886-272.31,280.938-451.48,358.555-179.171,78.676-387.018,103.918-623.542,66.578Q-1061.328,460.024-1073.7,430.949Z" transform="translate(1074.76 825.896)" fill="url(#ad)"/></g><g transform="translate(47.359 72.876)"><path d="M-1096.4,374.973c236.524,51.664,444.372,38.29,623.542-31.567,179.17-68.751,329.663-193.985,451.48-340.45C100.439-143.39,193.578-310.985,258.04-461.875,322.5-613.645,358.286-748.708,365.394-850.266c7.358,8.846,15.209,17.573,23.55,26.279-7.107,102.858-42.892,237.922-107.354,390.02C217.128-282.773,123.99-114.546,2.173,33.707c-121.816,148.336-272.309,276.717-451.48,350.288-179.17,74.653-387.017,94.5-623.542,50.692Q-1085.361,405.747-1096.4,374.973Z" transform="translate(1096.399 850.266)" fill="#7f7f7f"/><path d="M-1095.388,377.682c236.525,51.311,444.372,37.65,623.543-32.421C-292.675,276.295-142.182,150.92-20.365,4.372,101.451-142.059,194.59-309.681,259.051-460.585,323.513-612.371,359.3-747.437,366.405-849.053c7.4,8.836,15.294,17.556,23.677,26.261-7.108,102.908-42.893,237.97-107.354,390.079-64.462,151.2-157.6,319.455-279.417,467.786C-118.5,183.485-269,312-448.168,385.765c-179.17,74.85-387.018,94.957-623.542,51.472Q-1084.286,408.373-1095.388,377.682Z" transform="translate(1096.335 850.189)" fill="url(#ae)"/></g><g transform="translate(29.368 49.597)"><path d="M-1115.613,318.638c236.525,59.1,444.372,51.763,623.542-13.621C-312.9,240.762-162.407,118.462-40.591-26.255,81.226-170.83,174.364-337.839,238.826-488.411c64.462-151.43,100.247-286.421,107.354-386.715,6.51,9.122,13.51,18.043,21,26.858-7.107,101.745-42.892,236.813-107.354,388.643C195.366-308.678,102.227-140.967-19.589,5.65-141.405,152.373-291.9,278.022-471.069,347.436c-179.171,70.518-387.018,84.8-623.543,34.244Q-1105.849,351.141-1115.613,318.638Z" transform="translate(1115.613 875.126)" fill="#7f7f7f"/><path d="M-1114.717,321.5c236.524,58.719,444.372,51.072,623.542-14.54C-312,242.474-161.512,120.024-39.7-24.782,82.121-169.446,175.26-336.486,239.722-487.075c64.461-151.446,100.246-286.443,107.353-386.8,6.552,9.105,13.594,18.014,21.128,26.821-7.107,101.8-42.892,236.873-107.353,388.717-64.462,150.962-157.6,318.7-279.417,465.4-121.817,146.806-272.31,272.594-451.48,342.221-179.171,70.729-387.018,85.3-623.543,35.088Q-1104.89,353.913-1114.717,321.5Z" transform="translate(1115.556 875.047)" fill="url(#af)"/></g><g transform="translate(13.582 25.421)"><path d="M-1132.471,259.185c236.524,67.14,444.371,66.255,623.542,5.636,179.17-59.469,329.663-178.673,451.48-321.543,121.816-142.706,214.955-309.1,279.417-459.321C286.429-667.1,322.214-802,329.321-900.945c5.66,9.536,11.811,18.794,18.452,27.864-7.107,100.5-42.892,235.5-107.354,387C175.958-335.446,82.819-168.314-39-23.451c-121.816,144.992-272.309,267.735-451.48,332.7-179.17,66.09-387.017,74.4-623.542,16.5Q-1123.982,293.5-1132.471,259.185Z" transform="translate(1132.471 900.945)" fill="#7f7f7f"/><path d="M-1131.693,262.2c236.525,66.729,444.372,65.515,623.543,4.653C-328.98,207.142-178.487,87.781-56.671-55.183,65.146-197.983,158.285-364.4,222.746-514.646,287.208-665.724,322.993-800.622,330.1-899.639c5.7,9.513,11.894,18.751,18.579,27.8-7.108,100.563-42.893,235.57-107.354,387.084C176.862-334.1,83.723-166.936-38.092-21.983c-121.817,145.08-272.31,267.97-451.48,333.16-179.171,66.316-387.018,74.933-623.543,17.41Q-1123.142,296.427-1131.693,262.2Z" transform="translate(1132.421 900.862)" fill="url(#ag)"/></g><path d="M-1146.976,196.456c236.525,75.794,444.373,81.782,623.542,26.211,179.171-54.4,329.664-170.351,451.48-311.293C49.863-229.382,143-395.145,207.463-545.025c64.462-150.692,100.247-285.5,107.354-383.068a320,320,0,0,0,15.9,29.272c-7.107,99.164-42.892,234.069-107.354,385.2C158.9-363.329,65.765-196.814-56.051-53.8-177.867,89.355-328.36,209.025-507.53,269.247c-179.171,61.371-387.018,63.295-623.542-2.55Q-1139.761,232.652-1146.976,196.456Z" transform="translate(1146.976 928.093)" fill="#7f7f7f"/><path d="M-1146.313,199.639c236.524,75.352,444.371,80.989,623.542,25.162C-343.6,170.146-193.108,54.029-71.291-87.012,50.525-227.865,143.664-393.659,208.126-543.556,272.587-694.265,308.372-829.078,315.48-926.713a320.467,320.467,0,0,0,16.028,29.194c-7.107,99.231-42.892,234.141-107.353,385.29C159.693-361.92,66.554-195.373-55.262-52.27c-121.817,143.252-272.31,263.078-451.48,323.542-179.171,61.612-387.018,63.861-623.543-1.577Q-1139.035,235.741-1146.313,199.639Z" transform="translate(1146.934 928.005)" fill="url(#ah)"/></g></g></g></g></svg>