<svg xmlns="http://www.w3.org/2000/svg" xmlns:xlink="http://www.w3.org/1999/xlink" width="355" height="160" viewBox="0 0 355 160">
  <defs>
    <filter id="Rectangle_196" x="-1.5" y="-0.5" width="358" height="163" filterUnits="userSpaceOnUse">
      <feOffset dy="1" input="SourceAlpha"/>
      <feGaussianBlur stdDeviation="0.5" result="blur"/>
      <feFlood flood-opacity="0.102"/>
      <feComposite operator="in" in2="blur"/>
      <feComposite in="SourceGraphic"/>
    </filter>
    <clipPath id="clip-path">
      <g transform="matrix(1, 0, 0, 1, 0, 0)" filter="url(#Rectangle_196)">
        <rect id="Rectangle_196-2" data-name="Rectangle 196" width="355" height="160" transform="translate(3134 6308)" fill="#fff"/>
      </g>
    </clipPath>
    <filter id="Rectangle_137" x="-136.5" y="-0.5" width="315" height="163" filterUnits="userSpaceOnUse">
      <feOffset dy="1" input="SourceAlpha"/>
      <feGaussianBlur stdDeviation="0.5" result="blur-2"/>
      <feFlood flood-opacity="0.102"/>
      <feComposite operator="in" in2="blur-2"/>
      <feComposite in="SourceGraphic"/>
    </filter>
    <radialGradient id="radial-gradient" cx="0.5" cy="0.5" r="0.5" gradientUnits="objectBoundingBox">
      <stop offset="0" stop-color="#259821"/>
      <stop offset="1" stop-color="#114a4c"/>
    </radialGradient>
    <filter id="Subtraction_14" x="-152.5" y="-248.5" width="659" height="659" filterUnits="userSpaceOnUse">
      <feOffset dy="1" input="SourceAlpha"/>
      <feGaussianBlur stdDeviation="0.5" result="blur-3"/>
      <feFlood flood-opacity="0.102"/>
      <feComposite operator="in" in2="blur-3"/>
      <feComposite in="SourceGraphic"/>
    </filter>
    <clipPath id="clip-path-2">
      <rect id="Rectangle_141" data-name="Rectangle 141" width="312" height="208.028" fill="none"/>
    </clipPath>
    <linearGradient id="linear-gradient" x1="0.571" y1="0.588" x2="0.371" y2="0.341" gradientUnits="objectBoundingBox">
      <stop offset="0" stop-color="#afafaf"/>
      <stop offset="1" stop-color="#fefefe"/>
    </linearGradient>
    <linearGradient id="linear-gradient-2" x1="0.565" y1="0.578" x2="0.367" y2="0.339" xlink:href="#linear-gradient"/>
    <linearGradient id="linear-gradient-3" x1="0.559" y1="0.568" x2="0.363" y2="0.337" xlink:href="#linear-gradient"/>
    <linearGradient id="linear-gradient-4" x1="0.554" y1="0.56" x2="0.36" y2="0.335" xlink:href="#linear-gradient"/>
    <linearGradient id="linear-gradient-5" x1="0.549" y1="0.553" x2="0.356" y2="0.334" xlink:href="#linear-gradient"/>
    <linearGradient id="linear-gradient-6" x1="0.544" y1="0.546" x2="0.353" y2="0.333" xlink:href="#linear-gradient"/>
    <linearGradient id="linear-gradient-7" x1="0.54" y1="0.541" x2="0.35" y2="0.332" xlink:href="#linear-gradient"/>
    <linearGradient id="linear-gradient-8" x1="0.536" y1="0.536" x2="0.348" y2="0.33" xlink:href="#linear-gradient"/>
    <linearGradient id="linear-gradient-9" x1="0.533" y1="0.532" x2="0.345" y2="0.329" xlink:href="#linear-gradient"/>
    <linearGradient id="linear-gradient-10" x1="0.531" y1="0.53" x2="0.343" y2="0.328" xlink:href="#linear-gradient"/>
    <linearGradient id="linear-gradient-11" x1="0.529" y1="0.527" x2="0.34" y2="0.327" xlink:href="#linear-gradient"/>
    <linearGradient id="linear-gradient-12" x1="0.527" y1="0.526" x2="0.338" y2="0.326" xlink:href="#linear-gradient"/>
    <linearGradient id="linear-gradient-13" x1="0.525" y1="0.526" x2="0.335" y2="0.326" xlink:href="#linear-gradient"/>
    <linearGradient id="linear-gradient-14" x1="0.525" y1="0.527" x2="0.333" y2="0.325" xlink:href="#linear-gradient"/>
    <linearGradient id="linear-gradient-15" x1="0.525" y1="0.528" x2="0.331" y2="0.323" xlink:href="#linear-gradient"/>
    <linearGradient id="linear-gradient-16" x1="0.525" y1="0.53" x2="0.329" y2="0.322" xlink:href="#linear-gradient"/>
    <linearGradient id="linear-gradient-17" x1="0.527" y1="0.532" x2="0.327" y2="0.319" xlink:href="#linear-gradient"/>
    <linearGradient id="linear-gradient-18" x1="0.529" y1="0.535" x2="0.326" y2="0.317" xlink:href="#linear-gradient"/>
    <linearGradient id="linear-gradient-19" x1="0.532" y1="0.539" x2="0.324" y2="0.314" xlink:href="#linear-gradient"/>
    <linearGradient id="linear-gradient-20" x1="0.536" y1="0.544" x2="0.323" y2="0.311" xlink:href="#linear-gradient"/>
    <linearGradient id="linear-gradient-21" x1="0.54" y1="0.55" x2="0.321" y2="0.308" xlink:href="#linear-gradient"/>
    <linearGradient id="linear-gradient-22" x1="0.545" y1="0.557" x2="0.32" y2="0.305" xlink:href="#linear-gradient"/>
    <linearGradient id="linear-gradient-23" x1="0.55" y1="0.565" x2="0.318" y2="0.302" xlink:href="#linear-gradient"/>
    <linearGradient id="linear-gradient-24" x1="0.555" y1="0.575" x2="0.315" y2="0.299" xlink:href="#linear-gradient"/>
    <linearGradient id="linear-gradient-25" x1="0.561" y1="0.587" x2="0.313" y2="0.296" xlink:href="#linear-gradient"/>
    <linearGradient id="linear-gradient-26" x1="0.567" y1="0.6" x2="0.31" y2="0.294" xlink:href="#linear-gradient"/>
    <filter id="Rectangle_137-2" x="175.5" y="-0.5" width="315" height="163" filterUnits="userSpaceOnUse">
      <feOffset dy="1" input="SourceAlpha"/>
      <feGaussianBlur stdDeviation="0.5" result="blur-4"/>
      <feFlood flood-opacity="0.102"/>
      <feComposite operator="in" in2="blur-4"/>
      <feComposite in="SourceGraphic"/>
    </filter>
  </defs>
  <g id="Mask_Group_37" data-name="Mask Group 37" transform="translate(-3134 -6308)" clip-path="url(#clip-path)">
    <g transform="matrix(1, 0, 0, 1, 3134, 6308)" filter="url(#Rectangle_137)">
      <rect id="Rectangle_137-3" data-name="Rectangle 137" width="312" height="160" transform="translate(-135)" fill="#fff"/>
    </g>
    <g transform="matrix(1, 0, 0, 1, 3134, 6308)" filter="url(#Subtraction_14)">
      <path id="Subtraction_14-2" data-name="Subtraction 14" d="M328,656a330.425,330.425,0,0,1-66.1-6.664,326.2,326.2,0,0,1-117.285-49.353A328.956,328.956,0,0,1,25.776,455.672,326.352,326.352,0,0,1,6.664,394.1a331.2,331.2,0,0,1,0-132.207A326.2,326.2,0,0,1,56.017,144.612,328.958,328.958,0,0,1,200.328,25.776,326.352,326.352,0,0,1,261.9,6.664a331.2,331.2,0,0,1,132.207,0A326.2,326.2,0,0,1,511.388,56.017a328.956,328.956,0,0,1,118.836,144.31A326.352,326.352,0,0,1,649.336,261.9a331.2,331.2,0,0,1,0,132.207,326.2,326.2,0,0,1-49.353,117.285,328.955,328.955,0,0,1-144.31,118.836A326.353,326.353,0,0,1,394.1,649.336,330.421,330.421,0,0,1,328,656ZM253.78,288.51c5.135,0,9.123,1.156,11.854,3.437a10.587,10.587,0,0,1,2.989,4.034,13.649,13.649,0,0,1,1,5.344,19.746,19.746,0,0,1-2.213,9.349c-1.981,3.929-5.449,8.188-10.6,13.019L197.86,378.215V412H328.573V369.361H273.585l23.3-21.2c23.283-21,27.96-35.45,27.96-51.959,0-30.52-26.5-51.026-65.939-51.026-32.6,0-57.668,13.405-70.6,37.746l41.474,20.737a27.627,27.627,0,0,1,10.165-11.243A26.375,26.375,0,0,1,253.78,288.51Z" transform="translate(-151 -248)" fill="url(#radial-gradient)"/>
    </g>
    <g id="Group_472" data-name="Group 472" transform="translate(2999 6284)" style="mix-blend-mode: multiply;isolation: isolate">
      <g id="Group_471" data-name="Group 471" clip-path="url(#clip-path-2)">
        <g id="Group_470" data-name="Group 470" transform="translate(-96.722 -215.501)">
          <g id="Group_469" data-name="Group 469" transform="translate(0)">
            <g id="Group_443" data-name="Group 443">
              <path id="Path_548" data-name="Path 548" d="M350.072,314.011c-65.683-.5-123.4,17.787-173.159,47.195-49.756,29.237-91.548,69.6-125.377,109.305-33.828,39.813-59.694,78.98-77.595,108.275Q-52.91,623.3-55.871,638.149-66.724,621.786-77.986,604.2q2.961-10.137,29.812-51.978c17.9-27.5,43.766-65.541,77.594-104.739C63.249,408.4,105.042,368.16,154.8,338.852c49.756-29.471,107.475-48.008,173.159-47.438Q339.219,303.154,350.072,314.011Z" transform="translate(78.951 -290.395)" fill="#7f7f7f"/>
              <path id="Path_549" data-name="Path 549" d="M353.682,319.481c-65.683-.5-123.4,17.794-173.159,47.2-49.756,29.24-91.548,69.595-125.377,109.277C21.317,515.748-4.548,554.868-22.449,584.088q-26.852,44.4-29.812,59.059-10.87-16.415-22.15-34.049,2.961-9.928,29.812-51.65C-26.7,530.032-.833,492.038,33,452.866c33.829-39.057,75.621-79.3,125.377-108.607,49.756-29.475,107.476-48.023,173.159-47.451Q342.812,308.588,353.682,319.481Z" transform="translate(74.411 -296.796)" fill="url(#linear-gradient)"/>
            </g>
            <g id="Group_444" data-name="Group 444" transform="translate(19.205 19.712)">
              <path id="Path_550" data-name="Path 550" d="M278.349,207.178c-65.683-.421-123.4,17.67-173.159,47.033C55.434,283.4,13.642,323.854-20.187,364.076-54.015,404.4-79.88,444.488-97.782,475.242q-26.852,46.694-29.812,65.3-10.5-15.318-21.407-31.843,2.961-14.214,29.812-58.4c17.9-29.062,43.766-68.088,77.595-107.821,33.829-39.625,75.621-79.961,125.377-109.2,49.756-29.412,107.476-47.73,173.159-47.221Q267.85,197.03,278.349,207.178Z" transform="translate(149.935 -185.097)" fill="#7f7f7f"/>
              <path id="Path_551" data-name="Path 551" d="M281.842,212.3c-65.684-.425-123.4,17.676-173.159,47.04-49.756,29.189-91.548,69.64-125.377,109.838-33.829,40.3-59.694,80.342-77.595,111.027q-26.852,46.59-29.812,65.012-10.517-15.369-21.442-31.946,2.961-14.019,29.812-58.093c17.9-28.987,43.766-67.965,77.595-107.672,33.828-39.6,75.621-79.93,125.377-109.175C137,208.915,194.716,190.587,260.4,191.1Q271.325,202.117,281.842,212.3Z" transform="translate(145.543 -191.089)" fill="url(#linear-gradient-2)"/>
            </g>
            <g id="Group_445" data-name="Group 445" transform="translate(37.797 38.145)">
              <path id="Path_552" data-name="Path 552" d="M208.98,107.341C143.3,107,85.577,124.905,35.821,154.226c-49.756,29.138-91.548,69.687-125.377,110.4A760.619,760.619,0,0,0-167.15,378.5Q-194,427.237-196.963,449.31q-10.145-14.288-20.7-29.764,2.961-18,29.812-64.4c17.9-30.536,43.766-70.494,77.595-110.738,33.828-40.142,75.621-80.576,125.377-109.766C64.878,105.277,122.6,87.155,188.281,87.589Q198.835,97.854,208.98,107.341Z" transform="translate(218.566 -86.701)" fill="#7f7f7f"/>
              <path id="Path_553" data-name="Path 553" d="M212.357,112.118c-65.683-.348-123.4,17.57-173.159,46.892C-10.558,188.151-52.35,228.7-86.179,269.38a762.351,762.351,0,0,0-77.595,113.752q-26.852,48.636-29.812,70.544-10.162-14.338-20.734-29.867,2.961-17.816,29.812-64.112c17.9-30.465,43.766-70.378,77.595-110.6,33.829-40.117,75.621-80.546,125.377-109.739C68.22,109.993,125.939,91.862,191.622,92.3Q202.194,102.6,212.357,112.118Z" transform="translate(214.32 -92.292)" fill="url(#linear-gradient-3)"/>
            </g>
            <g id="Group_446" data-name="Group 446" transform="translate(55.777 55.376)">
              <path id="Path_554" data-name="Path 554" d="M141.967,14.385A333.889,333.889,0,0,0-31.192,61.1C-80.948,90.188-122.74,130.82-156.569,171.98A730.083,730.083,0,0,0-234.163,288.4c-17.9,33.754-27.839,59.12-29.812,75.9q-9.791-13.281-19.991-27.723,2.961-21.489,29.813-69.976A766.209,766.209,0,0,1-176.56,153.116c33.829-40.633,75.621-81.16,125.377-110.3C-1.427,13.49,56.292-4.448,121.976-4.092Q132.176,5.506,141.967,14.385Z" transform="translate(284.84 4.92)" fill="#7f7f7f"/>
              <path id="Path_555" data-name="Path 555" d="M145.227,18.825A333.844,333.844,0,0,0-27.932,65.553c-49.756,29.087-91.548,69.715-125.377,110.854A731.369,731.369,0,0,0-230.9,292.7c-17.9,33.694-27.838,58.977-29.812,75.659q-9.808-13.33-20.026-27.823,2.96-21.323,29.812-69.71a768.017,768.017,0,0,1,77.595-113.351C-139.507,116.868-97.714,76.345-47.959,47.2,1.8,17.875,59.517-.073,125.2.287Q135.418,9.917,145.227,18.825Z" transform="translate(280.742 -0.282)" fill="url(#linear-gradient-4)"/>
            </g>
            <g id="Group_447" data-name="Group 447" transform="translate(73.145 71.493)">
              <path id="Path_556" data-name="Path 556" d="M77.308-71.852C11.625-72.09-46.1-54.558-95.851-25.346-145.607,3.672-187.4,44.369-221.228,85.945a706.907,706.907,0,0,0-77.595,118.762c-17.9,34.924-27.839,61.878-29.812,80.582q-9.437-12.3-19.283-25.73c1.974-16.464,11.911-41.569,29.813-75.135A734.242,734.242,0,0,1-240.511,68.378c33.829-41.091,75.621-81.7,125.377-110.792A333.772,333.772,0,0,1,58.025-89.159Q67.871-80.177,77.308-71.852Z" transform="translate(348.761 89.932)" fill="#7f7f7f"/>
              <path id="Path_557" data-name="Path 557" d="M80.451-67.739c-65.683-.24-123.4,17.3-173.159,46.518C-142.464,7.8-184.256,48.494-218.085,90.051A707.888,707.888,0,0,0-295.68,208.7c-17.9,34.869-27.839,61.747-29.812,80.36q-9.454-12.348-19.318-25.827c1.974-16.363,11.911-41.384,29.812-74.889A735.585,735.585,0,0,1-237.4,72.421c33.828-41.069,75.621-81.677,125.377-110.77A333.724,333.724,0,0,1,61.133-85.1Q71-76.09,80.451-67.739Z" transform="translate(344.81 85.105)" fill="url(#linear-gradient-5)"/>
            </g>
            <g id="Group_448" data-name="Group 448" transform="translate(89.9 86.584)">
              <path id="Path_558" data-name="Path 558" d="M15-151.567c-65.683-.231-123.4,17.087-173.159,46.218C-207.912-76.42-249.7-35.679-283.533,6.271a688.863,688.863,0,0,0-77.595,120.913c-17.9,36-27.839,64.413-29.812,84.858q-9.083-11.355-18.575-23.8c1.974-18.416,11.911-45.129,29.812-79.88A710.121,710.121,0,0,1-302.108-10.058c33.829-41.512,75.621-82.193,125.377-111.218,49.756-29.22,107.476-46.783,173.159-46.541Q5.92-159.4,15-151.567Z" transform="translate(410.328 168.541)" fill="#7f7f7f"/>
              <path id="Path_559" data-name="Path 559" d="M18.03-147.773c-65.683-.231-123.4,17.1-173.159,46.234C-204.885-72.6-246.677-31.865-280.506,10.068A689.658,689.658,0,0,0-358.1,130.88c-17.9,35.95-27.838,64.292-29.812,84.655q-9.1-11.4-18.61-23.893c1.974-18.324,11.911-44.96,29.812-79.655A711.163,711.163,0,0,1-299.116-6.321c33.829-41.492,75.621-82.17,125.377-111.2,49.756-29.223,107.476-46.8,173.159-46.552Q8.929-155.625,18.03-147.773Z" transform="translate(406.523 164.074)" fill="url(#linear-gradient-6)"/>
            </g>
            <g id="Group_449" data-name="Group 449" transform="translate(106.043 100.748)">
              <path id="Path_560" data-name="Path 560" d="M-44.947-225c-65.683-.271-123.4,16.807-173.159,45.827-49.756,28.813-91.548,69.57-125.377,111.852A674.46,674.46,0,0,0-421.077,55.548c-17.9,36.983-27.839,66.726-29.812,88.734q-8.729-10.447-17.867-21.938c1.974-20.185,11.911-48.377,29.812-84.219a691.371,691.371,0,0,1,77.595-120.6c33.828-41.893,75.621-82.621,125.377-111.562,49.756-29.142,107.475-46.5,173.159-46.266Q-53.676-232.391-44.947-225Z" transform="translate(469.54 240.987)" fill="#7f7f7f"/>
              <path id="Path_561" data-name="Path 561" d="M-42.036-221.509c-65.683-.268-123.4,16.823-173.159,45.85-49.756,28.82-91.548,69.576-125.377,111.843A675.092,675.092,0,0,0-418.166,58.959C-436.068,95.9-446,125.575-447.979,147.51q-8.746-10.491-17.9-22.029c1.974-20.1,11.911-48.223,29.812-84.013a692.216,692.216,0,0,1,77.595-120.5c33.829-41.876,75.621-82.6,125.377-111.548,49.756-29.146,107.476-46.512,173.159-46.282Q-50.782-228.921-42.036-221.509Z" transform="translate(465.881 236.863)" fill="url(#linear-gradient-7)"/>
            </g>
            <g id="Group_450" data-name="Group 450" transform="translate(121.574 114.083)">
              <path id="Path_562" data-name="Path 562" d="M-102.542-292.414c-65.683-.367-123.4,16.433-173.159,45.309-49.756,28.663-91.548,69.4-125.377,111.97A662.61,662.61,0,0,0-478.672-10.515c-17.9,37.873-27.838,68.823-29.812,92.222q-8.375-9.583-17.159-20.159c1.974-21.776,11.911-51.318,29.812-88.157A676.488,676.488,0,0,1-418.237-149.2c33.828-42.232,75.621-82.98,125.377-111.81C-243.1-290.044-185.385-307.163-119.7-306.9Q-110.917-299.431-102.542-292.414Z" transform="translate(526.396 307.544)" fill="#7f7f7f"/>
              <path id="Path_563" data-name="Path 563" d="M-99.748-289.215c-65.683-.36-123.4,16.454-173.159,45.339-49.756,28.671-91.548,69.413-125.377,111.967A663.145,663.145,0,0,0-475.878-7.372c-17.9,37.831-27.839,68.724-29.812,92.058q-8.392-9.624-17.194-20.245c1.974-21.7,11.911-51.18,29.813-87.972a677.124,677.124,0,0,1,77.595-122.494c33.828-42.216,75.621-82.964,125.377-111.8C-240.346-286.868-182.626-304-116.943-303.74Q-108.141-296.249-99.748-289.215Z" transform="translate(522.885 303.743)" fill="url(#linear-gradient-8)"/>
            </g>
            <g id="Group_451" data-name="Group 451" transform="translate(136.493 126.694)">
              <path id="Path_564" data-name="Path 564" d="M-157.783-354.112c-65.683-.529-123.4,15.947-173.159,44.639C-380.7-281-422.49-240.313-456.319-197.511A652.537,652.537,0,0,0-533.913-71.341c-17.9,38.671-27.839,70.707-29.813,95.33q-8.021-8.766-16.451-18.471c1.974-23.193,11.911-53.962,29.812-91.7A664.283,664.283,0,0,1-472.77-210.558c33.828-42.523,75.621-83.261,125.377-111.946,49.756-28.9,107.475-45.745,173.159-45.4Q-165.8-360.816-157.783-354.112Z" transform="translate(580.899 368.514)" fill="#7f7f7f"/>
              <path id="Path_565" data-name="Path 565" d="M-155.105-351.188c-65.683-.519-123.4,15.974-173.159,44.676-49.756,28.482-91.548,69.174-125.377,111.965a653.009,653.009,0,0,0-77.595,126.1c-17.9,38.634-27.839,70.619-29.812,95.185q-8.039-8.806-16.486-18.552c1.974-23.127,11.911-53.838,29.812-91.538a664.867,664.867,0,0,1,77.595-124.288c33.829-42.51,75.621-83.249,125.377-111.943,49.756-28.906,107.476-45.767,173.159-45.425Q-163.144-357.907-155.105-351.188Z" transform="translate(577.534 365.015)" fill="url(#linear-gradient-9)"/>
            </g>
            <g id="Group_452" data-name="Group 452" transform="translate(150.799 138.684)">
              <path id="Path_566" data-name="Path 566" d="M-210.669-410.418c-65.683-.767-123.4,15.333-173.159,43.794C-433.584-338.39-475.376-297.8-509.2-254.809A643.691,643.691,0,0,0-586.8-127.289c-17.9,39.381-27.839,72.386-29.812,98.07q-7.667-8-15.743-16.88c1.974-24.442,11.911-56.315,29.812-94.871a654.031,654.031,0,0,1,77.594-125.955c33.829-42.767,75.621-83.457,125.377-111.958,49.756-28.721,107.476-45.251,173.159-44.752Q-218.336-416.873-210.669-410.418Z" transform="translate(633.047 424.226)" fill="#7f7f7f"/>
              <path id="Path_567" data-name="Path 567" d="M-208.108-407.753c-65.683-.753-123.4,15.367-173.159,43.84-49.756,28.248-91.548,68.848-125.377,111.826a644.093,644.093,0,0,0-77.595,127.458c-17.9,39.347-27.839,72.308-29.812,97.943q-7.684-8.038-15.778-16.957c1.974-24.384,11.911-56.206,29.812-94.723a654.492,654.492,0,0,1,77.594-125.881C-488.593-307-446.8-347.7-397.046-376.208c49.756-28.73,107.476-45.278,173.159-44.788Q-215.793-414.219-208.108-407.753Z" transform="translate(629.829 421.007)" fill="url(#linear-gradient-10)"/>
            </g>
            <g id="Group_453" data-name="Group 453" transform="translate(164.493 150.16)">
              <path id="Path_568" data-name="Path 568" d="M-261.2-461.681c-65.683-1.09-123.4,14.574-173.159,42.751-49.756,27.945-91.548,68.4-125.377,111.522a635.645,635.645,0,0,0-77.595,128.669c-17.9,40-27.839,73.865-29.812,100.455q-7.313-7.29-15.035-15.4c1.974-25.529,11.911-58.389,29.813-97.668a645.008,645.008,0,0,1,77.594-127.335c33.829-42.959,75.621-83.564,125.377-111.835,49.756-28.5,107.476-44.66,173.159-43.935Q-268.514-467.949-261.2-461.681Z" transform="translate(682.841 475.032)" fill="#7f7f7f"/>
              <path id="Path_569" data-name="Path 569" d="M-258.756-459.257c-65.683-1.072-123.4,14.615-173.159,42.808-49.756,27.961-91.548,68.427-125.376,111.54a636.012,636.012,0,0,0-77.595,128.616c-17.9,39.974-27.839,73.8-29.812,100.346q-7.331-7.325-15.071-15.467c1.974-25.479,11.911-58.293,29.813-97.538a645.434,645.434,0,0,1,77.595-127.272c33.828-42.951,75.621-83.561,125.377-111.844,49.756-28.509,107.475-44.692,173.159-43.981Q-266.087-465.534-258.756-459.257Z" transform="translate(679.769 472.071)" fill="url(#linear-gradient-11)"/>
            </g>
            <g id="Group_454" data-name="Group 454" transform="translate(177.575 161.224)">
              <path id="Path_570" data-name="Path 570" d="M-309.378-508.268c-65.683-1.507-123.4,13.654-173.159,41.492-49.756,27.6-91.548,67.875-125.377,111.072a628.032,628.032,0,0,0-77.595,129.62c-17.9,40.541-27.839,75.152-29.812,102.5q-6.959-6.638-14.328-14.023c1.974-26.459,11.911-60.194,29.812-100.108a636.857,636.857,0,0,1,77.595-128.515c33.828-43.1,75.621-83.575,125.377-111.565,49.756-28.222,107.475-43.959,173.159-42.925Q-316.337-514.415-309.378-508.268Z" transform="translate(730.279 521.308)" fill="#7f7f7f"/>
              <path id="Path_571" data-name="Path 571" d="M-307.049-506.068c-65.683-1.484-123.4,13.7-173.159,41.56-49.756,27.618-91.548,67.9-125.377,111.1a628.394,628.394,0,0,0-77.595,129.577c-17.9,40.516-27.839,75.093-29.812,102.407q-6.977-6.669-14.363-14.088c1.974-26.417,11.911-60.11,29.813-100a637.242,637.242,0,0,1,77.595-128.462c33.828-43.094,75.621-83.576,125.377-111.582,49.756-28.237,107.475-44,173.159-42.98Q-314.025-512.218-307.049-506.068Z" transform="translate(727.354 518.58)" fill="url(#linear-gradient-12)"/>
            </g>
            <g id="Group_455" data-name="Group 455" transform="translate(190.045 171.978)">
              <path id="Path_572" data-name="Path 572" d="M-355.2-550.567c-65.683-2.026-123.4,12.559-173.159,40-49.756,27.192-91.548,67.236-125.377,110.457-33.828,43.251-59.693,89.685-77.594,130.377-17.9,41-27.839,76.255-29.812,104.22q-6.605-6.045-13.62-12.768c1.974-27.24,11.911-61.739,29.813-102.205a629.2,629.2,0,0,1,77.595-129.5c33.828-43.187,75.621-83.486,125.377-111.14,49.756-27.892,107.475-43.137,173.159-41.7Q-361.805-556.653-355.2-550.567Z" transform="translate(775.363 563.447)" fill="#7f7f7f"/>
              <path id="Path_573" data-name="Path 573" d="M-352.988-548.568c-65.683-2-123.4,12.618-173.159,40.076C-575.9-481.279-617.695-441.222-651.523-398c-33.829,43.251-59.694,89.673-77.595,130.344-17.9,40.978-27.839,76.2-29.812,104.142q-6.623-6.073-13.655-12.827c1.974-27.2,11.911-61.669,29.812-102.109A629.586,629.586,0,0,1-665.178-407.9c33.829-43.184,75.621-83.493,125.377-111.165,49.756-27.909,107.475-43.181,173.159-41.767Q-359.611-554.656-352.988-548.568Z" transform="translate(772.585 560.926)" fill="url(#linear-gradient-13)"/>
            </g>
            <g id="Group_456" data-name="Group 456" transform="translate(201.902 182.52)">
              <path id="Path_574" data-name="Path 574" d="M-398.667-588.971c-65.683-2.656-123.4,11.275-173.159,38.246-49.756,26.72-91.548,66.48-125.377,109.672-33.828,43.215-59.693,89.867-77.595,130.945-17.9,41.379-27.839,77.184-29.812,105.63q-6.251-5.515-12.911-11.635c1.974-27.877,11.911-63.039,29.812-103.974,17.9-40.628,43.766-87.031,77.595-130.284,33.828-43.22,75.621-83.295,125.377-110.551,49.756-27.5,107.476-42.182,173.159-40.243Q-404.918-595.06-398.667-588.971Z" transform="translate(818.092 601.854)" fill="#7f7f7f"/>
              <path id="Path_575" data-name="Path 575" d="M-396.572-587.155c-65.683-2.622-123.4,11.343-173.159,38.338-49.756,26.745-91.548,66.52-125.377,109.715-33.829,43.218-59.693,89.86-77.595,130.921-17.9,41.362-27.839,77.142-29.812,105.568q-6.268-5.54-12.947-11.688c1.974-27.849,11.911-62.98,29.813-103.894,17.9-40.607,43.766-87,77.594-130.249,33.828-43.22,75.621-83.307,125.377-110.584,49.756-27.521,107.476-42.232,173.159-40.321Q-402.841-593.243-396.572-587.155Z" transform="translate(815.461 599.516)" fill="url(#linear-gradient-14)"/>
            </g>
            <g id="Group_457" data-name="Group 457" transform="translate(213.147 192.944)">
              <path id="Path_576" data-name="Path 576" d="M-439.78-623.89c-65.683-3.4-123.4,9.789-173.159,36.225-49.756,26.179-91.548,65.6-125.377,108.712-33.828,43.125-59.693,89.94-77.595,131.332-17.9,41.686-27.838,77.949-29.812,106.751q-5.9-5.049-12.2-10.628c1.974-28.38,11.911-64.1,29.813-105.432,17.9-41.026,43.766-87.656,77.594-130.882,33.829-43.2,75.621-83,125.377-109.793,49.756-27.045,107.476-41.084,173.159-38.534Q-445.677-630.042-439.78-623.89Z" transform="translate(858.466 636.95)" fill="#7f7f7f"/>
              <path id="Path_577" data-name="Path 577" d="M-437.8-622.237c-65.683-3.362-123.4,9.867-173.159,36.332-49.756,26.207-91.548,65.65-125.377,108.763-33.828,43.131-59.693,89.939-77.595,131.317-17.9,41.672-27.838,77.914-29.812,106.7q-5.915-5.07-12.239-10.675c1.974-28.358,11.911-64.057,29.812-105.367,17.9-41.008,43.766-87.628,77.595-130.856,33.828-43.2,75.621-83.016,125.377-109.835,49.756-27.069,107.475-41.142,173.159-38.625Q-443.715-628.385-437.8-622.237Z" transform="translate(855.982 634.77)" fill="url(#linear-gradient-15)"/>
            </g>
            <g id="Group_458" data-name="Group 458" transform="translate(223.779 203.336)">
              <path id="Path_578" data-name="Path 578" d="M-478.539-655.736c-65.683-4.273-123.4,8.089-173.159,33.918-49.756,25.566-91.548,64.6-125.377,107.572s-59.693,89.908-77.595,131.544c-17.9,41.924-27.838,78.56-29.812,107.6q-5.543-4.648-11.5-9.751c1.974-28.755,11.911-64.951,29.812-106.6,17.9-41.351,43.766-88.151,77.595-131.3,33.829-43.123,75.621-82.6,125.377-108.861,49.756-26.521,107.476-39.834,173.159-36.557Q-484.082-662.01-478.539-655.736Z" transform="translate(896.487 669.166)" fill="#7f7f7f"/>
              <path id="Path_579" data-name="Path 579" d="M-476.676-654.226c-65.683-4.227-123.4,8.178-173.159,34.04-49.756,25.6-91.548,64.653-125.377,107.633s-59.693,89.912-77.595,131.537c-17.9,41.914-27.839,78.533-29.812,107.564q-5.561-4.666-11.531-9.791c1.974-28.739,11.911-64.914,29.813-106.546,17.9-41.337,43.766-88.13,77.594-131.28,33.828-43.129,75.621-82.619,125.377-108.911,49.756-26.549,107.475-39.9,173.159-36.661Q-482.236-660.493-476.676-654.226Z" transform="translate(894.149 667.118)" fill="url(#linear-gradient-16)"/>
            </g>
            <g id="Group_459" data-name="Group 459" transform="translate(233.8 213.776)">
              <path id="Path_580" data-name="Path 580" d="M-514.942-684.926c-65.683-5.275-123.4,6.164-173.159,31.312-49.756,24.879-91.548,63.468-125.377,106.251s-59.693,89.774-77.595,131.591c-17.9,42.1-27.839,79.03-29.812,108.2q-5.189-4.313-10.787-9c1.974-29.011,11.911-65.592,29.812-107.487,17.9-41.606,43.766-88.525,77.595-131.535s75.621-82.086,125.377-107.749c49.756-25.926,107.476-38.424,173.159-34.3Q-520.131-691.379-514.942-684.926Z" transform="translate(932.152 698.938)" fill="#7f7f7f"/>
              <path id="Path_581" data-name="Path 581" d="M-513.2-683.537c-65.683-5.222-123.4,6.264-173.159,31.448-49.756,24.914-91.548,63.527-125.377,106.32s-59.693,89.782-77.595,131.593c-17.9,42.092-27.838,79.01-29.812,108.175q-5.206-4.328-10.823-9.039c1.974-29,11.911-65.565,29.813-107.449,17.9-41.6,43.766-88.51,77.594-131.527s75.621-82.114,125.377-107.808c49.756-25.957,107.475-38.5,173.159-34.414Q-518.4-689.981-513.2-683.537Z" transform="translate(929.961 696.997)" fill="url(#linear-gradient-17)"/>
            </g>
            <g id="Group_460" data-name="Group 460" transform="translate(243.208 224.335)">
              <path id="Path_582" data-name="Path 582" d="M-548.991-711.875c-65.683-6.414-123.4,4-173.159,28.393-49.756,24.115-91.548,62.2-125.377,104.747s-59.693,89.543-77.594,131.484c-17.9,42.216-27.839,79.371-29.812,108.57q-4.835-4.045-10.08-8.391c1.974-29.156,11.911-66.045,29.812-108.124,17.9-41.8,43.766-88.784,77.595-131.607s75.62-81.469,125.377-106.457C-682.473-718.516-624.754-730.106-559.07-725Q-553.826-718.562-548.991-711.875Z" transform="translate(965.463 726.707)" fill="#7f7f7f"/>
              <path id="Path_583" data-name="Path 583" d="M-547.362-710.588c-65.683-6.354-123.4,4.115-173.159,28.545-49.756,24.154-91.548,62.269-125.377,104.826s-59.693,89.557-77.595,131.493c-17.9,42.211-27.839,79.357-29.813,108.556q-4.853-4.057-10.115-8.418c1.974-29.151,11.911-66.026,29.812-108.1,17.9-41.789,43.766-88.774,77.595-131.607s75.621-81.5,125.377-106.525c49.756-25.292,107.475-36.929,173.159-31.871Q-552.214-717.262-547.362-710.588Z" transform="translate(963.419 724.847)" fill="url(#linear-gradient-18)"/>
            </g>
            <g id="Group_461" data-name="Group 461" transform="translate(252.004 235.076)">
              <path id="Path_584" data-name="Path 584" d="M-580.685-737c-65.683-7.7-123.4,1.6-173.159,25.151-49.756,23.272-91.548,60.805-125.377,103.061s-59.694,89.222-77.595,131.233c-17.9,42.281-27.839,79.6-29.812,108.735-2.988-2.562-6.112-5.189-9.372-7.911,1.974-29.2,11.911-66.324,29.812-108.529,17.9-41.929,43.766-88.938,77.595-131.523s75.621-80.746,125.377-104.981c49.756-24.511,107.475-35.094,173.159-28.868Q-585.167-743.97-580.685-737Z" transform="translate(996.419 752.915)" fill="#7f7f7f"/>
              <path id="Path_585" data-name="Path 585" d="M-579.173-735.792c-65.683-7.629-123.4,1.722-173.159,25.319-49.756,23.316-91.548,60.878-125.377,103.149S-937.4-518.085-955.3-476.076c-17.9,42.278-27.839,79.589-29.812,108.731-3-2.568-6.135-5.2-9.407-7.931,1.974-29.2,11.911-66.314,29.812-108.514,17.9-41.923,43.766-88.933,77.595-131.53s75.621-80.784,125.377-105.059c49.756-24.549,107.476-35.185,173.159-29.017Q-583.671-742.749-579.173-735.792Z" transform="translate(994.522 751.112)" fill="url(#linear-gradient-19)"/>
            </g>
            <g id="Group_462" data-name="Group 462" transform="translate(260.187 246.053)">
              <path id="Path_586" data-name="Path 586" d="M-610.026-760.706c-65.683-9.125-123.4-1.062-173.159,21.575-49.756,22.349-91.548,59.273-125.377,101.194s-59.693,88.817-77.595,130.853c-17.9,42.3-27.839,79.723-29.812,108.72-2.752-2.471-5.64-4.982-8.664-7.563,1.974-29.153,11.911-66.448,29.812-108.724,17.9-42.007,43.766-89,77.595-131.294s75.621-79.918,125.377-103.323c49.756-23.687,107.476-33.163,173.159-25.677Q-614.153-768.01-610.026-760.706Z" transform="translate(1025.021 778.003)" fill="#7f7f7f"/>
              <path id="Path_587" data-name="Path 587" d="M-608.628-759.56c-65.683-9.051-123.4-.924-173.159,21.76-49.756,22.4-91.548,59.352-125.377,101.291s-59.693,88.839-77.594,130.875c-17.9,42.3-27.839,79.719-29.812,108.725-2.763-2.475-5.663-4.991-8.7-7.577,1.974-29.157,11.911-66.445,29.813-108.719,17.9-42,43.766-89,77.595-131.309s75.621-79.962,125.377-103.41c49.756-23.729,107.476-33.263,173.159-25.843Q-612.773-766.847-608.628-759.56Z" transform="translate(1023.27 776.232)" fill="url(#linear-gradient-20)"/>
            </g>
            <g id="Group_463" data-name="Group 463" transform="translate(267.759 257.312)">
              <path id="Path_588" data-name="Path 588" d="M-637.01-783.4c-65.683-10.707-123.4-3.982-173.159,17.657-49.756,21.345-91.548,57.6-125.377,99.149-33.829,41.524-59.693,88.337-77.595,130.358-17.9,42.278-27.839,79.763-29.812,108.55-2.516-2.425-5.168-4.863-7.956-7.346,1.974-29.024,11.911-66.434,29.812-108.736C-1003.2-585.8-977.33-632.735-943.5-674.7s75.621-78.99,125.377-101.485c49.756-22.783,107.476-31.045,173.159-22.154Q-640.784-791.079-637.01-783.4Z" transform="translate(1051.267 802.407)" fill="#7f7f7f"/>
              <path id="Path_589" data-name="Path 589" d="M-635.731-782.293c-65.683-10.625-123.4-3.832-173.159,17.859-49.756,21.4-91.548,57.691-125.377,99.255-33.829,41.543-59.693,88.362-77.595,130.384-17.9,42.28-27.838,79.763-29.812,108.562-2.527-2.426-5.191-4.867-7.991-7.354,1.974-29.032,11.911-66.438,29.812-108.739,17.9-42.038,43.766-88.972,77.594-130.954s75.621-79.038,125.377-101.58c49.756-22.829,107.476-31.155,173.159-22.336Q-639.521-789.953-635.731-782.293Z" transform="translate(1049.664 800.644)" fill="url(#linear-gradient-21)"/>
            </g>
            <g id="Group_464" data-name="Group 464" transform="translate(274.717 268.889)">
              <path id="Path_590" data-name="Path 590" d="M-661.641-805.468c-65.683-12.446-123.4-7.171-173.159,13.39-49.756,20.259-91.548,55.8-125.377,96.93-33.828,41.1-59.693,87.788-77.595,129.762-17.9,42.224-27.839,79.735-29.812,108.253-2.28-2.42-4.7-4.83-7.248-7.258,1.974-28.824,11.911-66.3,29.813-108.589,17.9-42.029,43.766-88.867,77.595-130.455C-933.6-745.039-891.8-781.4-842.048-802.9c49.756-21.8,107.476-28.74,173.159-18.29Q-665.061-813.564-661.641-805.468Z" transform="translate(1075.161 826.554)" fill="#7f7f7f"/>
              <path id="Path_591" data-name="Path 591" d="M-660.477-804.385c-65.683-12.357-123.4-7.007-173.159,13.609-49.756,20.315-91.548,55.9-125.377,97.044-33.828,41.122-59.693,87.817-77.595,129.794-17.9,42.228-27.838,79.738-29.812,108.27-2.291-2.419-4.719-4.829-7.283-7.26,1.974-28.835,11.911-66.311,29.812-108.6,17.9-42.031,43.766-88.874,77.595-130.481,33.829-41.624,75.621-78.017,125.377-99.571,49.756-21.848,107.476-28.858,173.159-18.489Q-663.914-812.459-660.477-804.385Z" transform="translate(1073.703 824.778)" fill="url(#linear-gradient-22)"/>
            </g>
            <g id="Group_465" data-name="Group 465" transform="translate(281.064 280.811)">
              <path id="Path_592" data-name="Path 592" d="M-683.917-827.3c-65.683-14.347-123.4-10.633-173.159,8.766-49.756,19.092-91.548,53.87-125.377,94.544-33.828,40.641-59.693,87.182-77.595,129.084-17.9,42.147-27.838,79.654-29.812,107.857-2.043-2.457-4.224-4.88-6.54-7.3,1.974-28.564,11.911-66.071,29.812-108.309,17.9-41.987,43.766-88.7,77.595-129.874,33.828-41.193,75.621-76.845,125.377-97.276,49.756-20.731,107.475-26.242,173.159-14.077Q-686.982-835.847-683.917-827.3Z" transform="translate(1096.697 850.865)" fill="#7f7f7f"/>
              <path id="Path_593" data-name="Path 593" d="M-682.87-826.219c-65.683-14.249-123.4-10.456-173.159,9-49.756,19.152-91.548,53.969-125.377,94.666-33.828,40.664-59.693,87.213-77.594,129.119-17.9,42.151-27.839,79.659-29.812,107.878-2.055-2.454-4.247-4.875-6.575-7.293,1.974-28.578,11.911-66.085,29.813-108.326,17.9-41.99,43.766-88.713,77.595-129.9,33.828-41.214,75.621-76.9,125.377-97.388,49.756-20.786,107.476-26.37,173.159-14.294Q-685.953-834.742-682.87-826.219Z" transform="translate(1095.388 849.053)" fill="url(#linear-gradient-23)"/>
            </g>
            <g id="Group_466" data-name="Group 466" transform="translate(286.799 293.099)">
              <path id="Path_594" data-name="Path 594" d="M-703.839-849.262c-65.683-16.412-123.4-14.375-173.159,3.782-49.756,17.844-91.548,51.807-125.377,91.995-33.829,40.149-59.693,86.528-77.595,128.342-17.9,42.052-27.839,79.54-29.812,107.391-1.808-2.533-3.752-5.011-5.832-7.459,1.974-28.255,11.911-65.764,29.813-107.927,17.9-41.918,43.766-88.492,77.594-129.208,33.828-40.745,75.621-75.638,125.377-94.914,49.756-19.583,107.476-23.549,173.159-9.51Q-706.55-858.287-703.839-849.262Z" transform="translate(1115.881 875.744)" fill="#7f7f7f"/>
              <path id="Path_595" data-name="Path 595" d="M-702.908-848.167c-65.683-16.306-123.4-14.183-173.159,4.038-49.756,17.907-91.548,51.912-125.377,92.125-33.828,40.174-59.693,86.561-77.595,128.38-17.9,42.057-27.838,79.546-29.812,107.416-1.819-2.529-3.775-5-5.867-7.448,1.974-28.271,11.911-65.78,29.812-107.947,17.9-41.922,43.766-88.5,77.595-129.242,33.829-40.768,75.621-75.7,125.377-95.035,49.756-19.642,107.476-23.687,173.159-9.744Q-705.637-857.169-702.908-848.167Z" transform="translate(1114.717 873.877)" fill="url(#linear-gradient-24)"/>
            </g>
            <g id="Group_467" data-name="Group 467" transform="translate(291.921 305.764)">
              <path id="Path_596" data-name="Path 596" d="M-721.4-871.71c-65.683-18.645-123.4-18.4-173.159-1.565-49.756,16.515-91.548,49.618-125.377,89.293-33.829,39.63-59.693,85.837-77.595,127.554-17.9,41.95-27.839,79.409-29.812,106.888-1.572-2.648-3.28-5.219-5.124-7.738,1.974-27.909,11.911-65.4,29.813-107.47,17.9-41.832,43.766-88.245,77.595-128.474,33.828-40.265,75.621-74.35,125.377-92.391,49.756-18.353,107.475-20.661,173.159-4.583Q-723.762-881.24-721.4-871.71Z" transform="translate(1132.708 901.582)" fill="#7f7f7f"/>
              <path id="Path_597" data-name="Path 597" d="M-720.591-870.582c-65.683-18.531-123.4-18.194-173.159-1.292-49.756,16.582-91.548,49.729-125.376,89.43-33.829,39.656-59.694,85.871-77.594,127.594-17.9,41.954-27.839,79.416-29.812,106.913-1.583-2.642-3.3-5.207-5.159-7.721,1.974-27.927,11.911-65.418,29.812-107.494,17.9-41.837,43.766-88.258,77.595-128.512,33.829-40.289,75.621-74.416,125.377-92.519,49.756-18.416,107.476-20.809,173.159-4.835Q-722.966-880.087-720.591-870.582Z" transform="translate(1131.693 899.639)" fill="url(#linear-gradient-25)"/>
            </g>
            <g id="Group_468" data-name="Group 468" transform="translate(296.431 318.812)">
              <path id="Path_598" data-name="Path 598" d="M-736.617-894.985c-65.684-21.048-123.4-22.711-173.159-7.279-49.756,15.106-91.548,47.307-125.377,86.447-33.828,39.088-59.693,85.121-77.594,126.743-17.9,41.847-27.838,79.284-29.812,106.379a88.9,88.9,0,0,0-4.416-8.129c1.974-27.538,11.911-65,29.813-106.97,17.9-41.737,43.766-87.978,77.594-127.692,33.829-39.756,75.621-72.988,125.377-89.712,49.756-17.043,107.476-17.577,173.159.708Q-738.621-905.036-736.617-894.985Z" transform="translate(1147.183 928.749)" fill="#7f7f7f"/>
              <path id="Path_599" data-name="Path 599" d="M-735.919-893.808c-65.683-20.925-123.4-22.491-173.159-6.988-49.756,15.178-91.548,47.424-125.377,86.591-33.828,39.115-59.693,85.156-77.594,126.783-17.9,41.852-27.839,79.29-29.812,106.4a88.983,88.983,0,0,0-4.451-8.107c1.974-27.557,11.911-65.021,29.812-107,17.9-41.741,43.766-87.992,77.595-127.732,33.829-39.781,75.621-73.057,125.377-89.848,49.756-17.11,107.476-17.734,173.159.438Q-737.941-903.834-735.919-893.808Z" transform="translate(1146.313 926.713)" fill="url(#linear-gradient-26)"/>
            </g>
          </g>
        </g>
      </g>
    </g>
    <g transform="matrix(1, 0, 0, 1, 3134, 6308)" filter="url(#Rectangle_137-2)">
      <rect id="Rectangle_137-4" data-name="Rectangle 137" width="312" height="160" transform="translate(489 160) rotate(180)" fill="#fff"/>
    </g>
    <g id="Group_472-2" data-name="Group 472" transform="translate(3623 6492) rotate(180)" style="mix-blend-mode: multiply;isolation: isolate">
      <g id="Group_471-2" data-name="Group 471" clip-path="url(#clip-path-2)">
        <g id="Group_470-2" data-name="Group 470" transform="translate(-96.722 -215.501)">
          <g id="Group_469-2" data-name="Group 469" transform="translate(0 0)">
            <g id="Group_443-2" data-name="Group 443">
              <path id="Path_548-2" data-name="Path 548" d="M428.057,22.61C362.374,22.112,304.655,40.4,254.9,69.8c-49.756,29.237-91.548,69.6-125.377,109.305-33.828,39.813-59.694,78.98-77.595,108.275Q25.076,331.9,22.115,346.748,11.262,330.385,0,312.8q2.961-10.137,29.812-51.978c17.9-27.5,43.766-65.541,77.594-104.739C141.235,117,183.028,76.759,232.784,47.451,282.54,17.98,340.259-.557,405.943.013Q417.2,11.753,428.057,22.61Z" transform="translate(0.965 1.006)" fill="#7f7f7f"/>
              <path id="Path_549-2" data-name="Path 549" d="M428.093,22.685c-65.683-.5-123.4,17.794-173.159,47.2-49.756,29.24-91.548,69.595-125.377,109.277-33.829,39.787-59.694,78.907-77.595,108.127Q25.11,331.7,22.15,346.351,11.28,329.936,0,312.3q2.961-9.928,29.812-51.65c17.9-27.416,43.766-65.411,77.595-104.583,33.829-39.057,75.621-79.3,125.377-108.607C282.54,17.989,340.259-.559,405.943.013Q417.222,11.792,428.093,22.685Z" fill="url(#linear-gradient)"/>
            </g>
            <g id="Group_444-2" data-name="Group 444" transform="translate(19.205 19.712)">
              <path id="Path_550-2" data-name="Path 550" d="M427.35,21.139c-65.683-.422-123.4,17.67-173.159,47.033-49.756,29.186-91.548,69.643-125.377,109.865C94.986,218.357,69.121,258.449,51.22,289.2Q24.368,335.9,21.407,354.5,10.908,339.181,0,322.656q2.961-14.214,29.812-58.4c17.9-29.062,43.766-68.088,77.595-107.821,33.829-39.625,75.621-79.961,125.377-109.2C282.54,17.819,340.259-.5,405.943.01Q416.851,10.991,427.35,21.139Z" transform="translate(0.934 0.941)" fill="#7f7f7f"/>
              <path id="Path_551-2" data-name="Path 551" d="M427.385,21.209c-65.683-.425-123.4,17.676-173.159,47.04-49.756,29.189-91.548,69.64-125.377,109.838-33.829,40.3-59.694,80.342-77.595,111.027Q24.4,335.7,21.442,354.127,10.926,338.758,0,322.181q2.961-14.019,29.812-58.093c17.9-28.987,43.766-67.965,77.595-107.672,33.828-39.6,75.621-79.93,125.377-109.175C282.54,17.826,340.259-.5,405.943.01Q416.868,11.028,427.385,21.209Z" transform="translate(0 0)" fill="url(#linear-gradient-2)"/>
            </g>
            <g id="Group_445-2" data-name="Group 445" transform="translate(37.797 38.145)">
              <path id="Path_552-2" data-name="Path 552" d="M426.642,19.76c-65.683-.345-123.4,17.564-173.159,46.885-49.756,29.138-91.548,69.687-125.377,110.4A760.618,760.618,0,0,0,50.512,290.922Q23.66,339.656,20.7,361.729,10.554,347.442,0,331.965q2.961-18,29.812-64.4c17.9-30.536,43.766-70.494,77.595-110.738,33.828-40.142,75.621-80.576,125.377-109.766C282.54,17.7,340.259-.426,405.943.008Q416.5,10.273,426.642,19.76Z" transform="translate(0.904 0.88)" fill="#7f7f7f"/>
              <path id="Path_553-2" data-name="Path 553" d="M426.677,19.826c-65.683-.348-123.4,17.57-173.159,46.892C203.762,95.859,161.97,136.4,128.141,177.088A762.353,762.353,0,0,0,50.547,290.84q-26.852,48.636-29.812,70.544Q10.572,347.046,0,331.518,2.961,313.7,29.812,267.406c17.9-30.465,43.766-70.378,77.595-110.6,33.829-40.117,75.621-80.546,125.377-109.739C282.54,17.7,340.259-.43,405.942.008Q416.514,10.307,426.677,19.826Z" transform="translate(0 0)" fill="url(#linear-gradient-3)"/>
            </g>
            <g id="Group_446-2" data-name="Group 446" transform="translate(55.777 55.376)">
              <path id="Path_554-2" data-name="Path 554" d="M425.934,18.482A333.889,333.889,0,0,0,252.775,65.2C203.019,94.285,161.227,134.917,127.4,176.077A730.082,730.082,0,0,0,49.8,292.494c-17.9,33.754-27.839,59.12-29.812,75.9Q10.2,355.114,0,340.672,2.961,319.183,29.813,270.7a766.209,766.209,0,0,1,77.594-113.483c33.829-40.632,75.621-81.16,125.377-110.3C282.54,17.587,340.259-.351,405.943.005Q416.143,9.6,425.934,18.482Z" transform="translate(0.873 0.823)" fill="#7f7f7f"/>
              <path id="Path_555-2" data-name="Path 555" d="M425.969,18.543A333.844,333.844,0,0,0,252.81,65.271c-49.756,29.087-91.548,69.715-125.377,110.854a731.366,731.366,0,0,0-77.595,116.3C31.937,326.114,22,351.4,20.026,368.079Q10.218,354.749,0,340.256q2.961-21.323,29.812-69.71a768.017,768.017,0,0,1,77.595-113.351c33.828-40.609,75.621-81.132,125.376-110.277C282.54,17.593,340.259-.355,405.942.005Q416.16,9.635,425.969,18.543Z" transform="translate(0 0)" fill="url(#linear-gradient-4)"/>
            </g>
            <g id="Group_447-2" data-name="Group 447" transform="translate(73.145 71.493)">
              <path id="Path_556-2" data-name="Path 556" d="M425.226,17.31c-65.683-.238-123.4,17.294-173.159,46.506-49.756,29.017-91.548,69.714-125.377,111.29A706.9,706.9,0,0,0,49.1,293.869c-17.9,34.924-27.839,61.878-29.812,80.582Q9.846,362.151,0,348.721c1.974-16.464,11.911-41.569,29.813-75.135A734.24,734.24,0,0,1,107.407,157.54c33.829-41.091,75.621-81.7,125.377-110.792A333.772,333.772,0,0,1,405.943,0Q415.789,8.985,425.226,17.31Z" transform="translate(0.843 0.77)" fill="#7f7f7f"/>
              <path id="Path_557-2" data-name="Path 557" d="M425.261,17.366c-65.683-.24-123.4,17.3-173.159,46.518C202.346,92.9,160.554,133.6,126.725,175.156A707.887,707.887,0,0,0,49.13,293.806c-17.9,34.869-27.839,61.747-29.812,80.36Q9.864,361.818,0,348.339c1.974-16.363,11.911-41.384,29.812-74.889a735.585,735.585,0,0,1,77.595-115.923c33.828-41.069,75.621-81.677,125.377-110.77A333.725,333.725,0,0,1,405.943,0Q415.806,9.015,425.261,17.366Z" transform="translate(0 0)" fill="url(#linear-gradient-5)"/>
            </g>
            <g id="Group_448-2" data-name="Group 448" transform="translate(89.9 86.584)">
              <path id="Path_558-2" data-name="Path 558" d="M424.518,16.252c-65.683-.231-123.4,17.087-173.159,46.218C201.6,91.4,159.811,132.14,125.982,174.09A688.865,688.865,0,0,0,48.388,295c-17.9,36-27.839,64.413-29.812,84.858Q9.492,368.506,0,356.063c1.974-18.416,11.911-45.129,29.812-79.88a710.118,710.118,0,0,1,77.595-118.421c33.829-41.512,75.621-82.193,125.377-111.218C282.54,17.324,340.259-.24,405.943,0Q415.435,8.423,424.518,16.252Z" transform="translate(0.813 0.722)" fill="#7f7f7f"/>
              <path id="Path_559-2" data-name="Path 559" d="M424.553,16.3c-65.683-.231-123.4,17.1-173.159,46.234-49.756,28.934-91.548,69.673-125.377,111.607A689.659,689.659,0,0,0,48.423,294.954c-17.9,35.95-27.839,64.292-29.812,84.655Q9.51,368.209,0,355.717c1.974-18.324,11.911-44.96,29.812-79.655a711.161,711.161,0,0,1,77.595-118.308c33.829-41.492,75.621-82.17,125.377-111.2C282.54,17.332,340.259-.242,405.943,0Q415.452,8.449,424.553,16.3Z" transform="translate(0 0)" fill="url(#linear-gradient-6)"/>
            </g>
            <g id="Group_449-2" data-name="Group 449" transform="translate(106.043 100.748)">
              <path id="Path_560-2" data-name="Path 560" d="M423.81,15.311c-65.683-.271-123.4,16.807-173.159,45.827C200.895,89.952,159.1,130.708,125.274,172.99A674.46,674.46,0,0,0,47.68,295.857c-17.9,36.983-27.839,66.726-29.812,88.734Q9.138,374.144,0,362.653c1.974-20.185,11.911-48.377,29.812-84.219a691.372,691.372,0,0,1,77.595-120.6c33.828-41.893,75.621-82.621,125.377-111.562C282.539,17.127,340.259-.228,405.943,0Q415.081,7.918,423.81,15.311Z" transform="translate(0.783 0.678)" fill="#7f7f7f"/>
              <path id="Path_561-2" data-name="Path 561" d="M423.845,15.354c-65.683-.268-123.4,16.823-173.159,45.85-49.756,28.82-91.548,69.576-125.377,111.843A675.091,675.091,0,0,0,47.715,295.822c-17.9,36.937-27.839,66.617-29.812,88.552Q9.156,373.882,0,362.345c1.974-20.1,11.911-48.223,29.812-84.013a692.212,692.212,0,0,1,77.595-120.5c33.829-41.876,75.621-82.6,125.377-111.548C282.54,17.138,340.259-.227,405.943,0Q415.1,7.942,423.845,15.354Z" transform="translate(0 0)" fill="url(#linear-gradient-7)"/>
            </g>
            <g id="Group_450-2" data-name="Group 450" transform="translate(121.574 114.084)">
              <path id="Path_562-2" data-name="Path 562" d="M423.1,14.49C357.419,14.124,299.7,30.923,249.943,59.8c-49.756,28.663-91.548,69.4-125.377,111.97A662.612,662.612,0,0,0,46.972,296.389c-17.9,37.873-27.839,68.823-29.812,92.222Q8.784,379.027,0,368.451c1.974-21.776,11.911-51.318,29.812-88.157a676.485,676.485,0,0,1,77.595-122.587c33.828-42.232,75.621-82.98,125.377-111.81C282.54,16.86,340.259-.259,405.943,0Q414.727,7.473,423.1,14.49Z" transform="translate(0.753 0.64)" fill="#7f7f7f"/>
              <path id="Path_563-2" data-name="Path 563" d="M423.137,14.528c-65.683-.36-123.4,16.454-173.159,45.339C200.222,88.538,158.43,129.28,124.6,171.833A663.145,663.145,0,0,0,47.007,296.371c-17.9,37.831-27.838,68.724-29.812,92.058Q8.8,378.8,0,368.184c1.974-21.7,11.911-51.18,29.813-87.972a677.126,677.126,0,0,1,77.595-122.494c33.828-42.216,75.621-82.964,125.377-111.8C282.54,16.875,340.259-.256,405.943,0Q414.744,7.494,423.137,14.528Z" transform="translate(0 0)" fill="url(#linear-gradient-8)"/>
            </g>
            <g id="Group_451-2" data-name="Group 451" transform="translate(136.493 126.694)">
              <path id="Path_564-2" data-name="Path 564" d="M422.394,13.8c-65.683-.529-123.4,15.947-173.159,44.639-49.756,28.472-91.548,69.16-125.377,111.961A652.542,652.542,0,0,0,46.264,296.566c-17.9,38.671-27.839,70.707-29.813,95.33Q8.43,383.13,0,373.425c1.974-23.193,11.911-53.962,29.812-91.7a664.288,664.288,0,0,1,77.595-124.372C141.235,114.825,183.028,74.088,232.784,45.4,282.54,16.5,340.259-.342,405.943.005Q414.373,7.091,422.394,13.8Z" transform="translate(0.722 0.607)" fill="#7f7f7f"/>
              <path id="Path_565-2" data-name="Path 565" d="M422.429,13.827C356.746,13.307,299.026,29.8,249.27,58.5c-49.756,28.482-91.548,69.174-125.377,111.965A653.007,653.007,0,0,0,46.3,296.566C28.4,335.2,18.46,367.185,16.486,391.751Q8.448,382.945,0,373.2c1.974-23.127,11.911-53.838,29.812-91.538a664.867,664.867,0,0,1,77.595-124.288c33.829-42.51,75.621-83.249,125.377-111.943C282.54,16.524,340.259-.337,405.942.005Q414.39,7.108,422.429,13.827Z" transform="translate(0 0)" fill="url(#linear-gradient-9)"/>
            </g>
            <g id="Group_452-2" data-name="Group 452" transform="translate(150.799 138.684)">
              <path id="Path_566-2" data-name="Path 566" d="M421.686,13.229C356,12.461,298.283,28.562,248.527,57.022c-49.756,28.235-91.548,68.829-125.377,111.816a643.693,643.693,0,0,0-77.595,127.52c-17.9,39.381-27.839,72.386-29.812,98.07q-7.667-8-15.743-16.88c1.974-24.442,11.911-56.315,29.812-94.871a654.03,654.03,0,0,1,77.595-125.954c33.829-42.767,75.621-83.457,125.377-111.958C282.54,16.043,340.259-.488,405.943.011Q414.019,6.774,421.686,13.229Z" transform="translate(0.692 0.579)" fill="#7f7f7f"/>
              <path id="Path_567-2" data-name="Path 567" d="M421.721,13.254c-65.683-.753-123.4,15.367-173.159,43.84-49.756,28.248-91.548,68.848-125.377,111.826A644.087,644.087,0,0,0,45.591,296.378c-17.9,39.347-27.839,72.308-29.812,97.943Q8.094,386.283,0,377.364c1.974-24.384,11.911-56.206,29.812-94.723A654.492,654.492,0,0,1,107.407,156.76C141.236,114,183.028,73.31,232.783,44.8,282.54,16.069,340.259-.479,405.942.011Q414.036,6.788,421.721,13.254Z" transform="translate(0 0)" fill="url(#linear-gradient-10)"/>
            </g>
            <g id="Group_453-2" data-name="Group 453" transform="translate(164.493 150.16)">
              <path id="Path_568-2" data-name="Path 568" d="M420.978,12.8c-65.683-1.09-123.4,14.574-173.159,42.751-49.756,27.945-91.548,68.4-125.377,111.522A635.644,635.644,0,0,0,44.848,295.738c-17.9,40-27.839,73.865-29.812,100.455Q7.722,388.9,0,380.8c1.974-25.529,11.911-58.389,29.812-97.668a645.014,645.014,0,0,1,77.594-127.335c33.829-42.959,75.621-83.564,125.377-111.835C282.54,15.462,340.259-.7,405.943.023Q413.665,6.527,420.978,12.8Z" transform="translate(0.662 0.556)" fill="#7f7f7f"/>
              <path id="Path_569-2" data-name="Path 569" d="M421.013,12.814c-65.683-1.072-123.4,14.615-173.159,42.808-49.756,27.961-91.548,68.427-125.376,111.54A636.008,636.008,0,0,0,44.883,295.778c-17.9,39.974-27.839,73.8-29.812,100.346Q7.74,388.8,0,380.657c1.974-25.479,11.911-58.293,29.813-97.538a645.427,645.427,0,0,1,77.595-127.272C141.235,112.9,183.028,72.287,232.784,44,282.54,15.494,340.259-.689,405.943.023Q413.682,6.538,421.013,12.814Z" transform="translate(0 0)" fill="url(#linear-gradient-11)"/>
            </g>
            <g id="Group_454-2" data-name="Group 454" transform="translate(177.575 161.224)">
              <path id="Path_570-2" data-name="Path 570" d="M420.27,12.5c-65.683-1.507-123.4,13.654-173.159,41.492-49.756,27.6-91.548,67.875-125.377,111.072A628.035,628.035,0,0,0,44.14,294.684c-17.9,40.541-27.839,75.152-29.812,102.5Q7.368,390.547,0,383.162C1.974,356.7,11.911,322.968,29.812,283.054a636.854,636.854,0,0,1,77.595-128.515c33.828-43.1,75.621-83.575,125.377-111.565C282.539,14.751,340.259-.986,405.943.048Q413.311,6.355,420.27,12.5Z" transform="translate(0.631 0.538)" fill="#7f7f7f"/>
              <path id="Path_571-2" data-name="Path 571" d="M420.305,12.512c-65.683-1.484-123.4,13.7-173.159,41.56C197.39,81.69,155.6,121.975,121.77,165.17A628.393,628.393,0,0,0,44.175,294.747c-17.9,40.517-27.838,75.093-29.812,102.407Q7.386,390.485,0,383.066c1.974-26.417,11.911-60.11,29.812-100a637.244,637.244,0,0,1,77.595-128.461c33.828-43.094,75.621-83.576,125.377-111.582C282.54,14.789,340.259-.97,405.943.046Q413.329,6.362,420.305,12.512Z" transform="translate(0 0)" fill="url(#linear-gradient-12)"/>
            </g>
            <g id="Group_455-2" data-name="Group 455" transform="translate(190.045 171.978)">
              <path id="Path_572-2" data-name="Path 572" d="M419.562,12.354c-65.683-2.026-123.4,12.559-173.159,40-49.756,27.192-91.548,67.236-125.377,110.457C87.2,206.058,61.333,252.492,43.432,293.184c-17.9,41-27.839,76.255-29.812,104.22Q7.014,391.359,0,384.636C1.974,357.4,11.911,322.9,29.813,282.431a629.2,629.2,0,0,1,77.595-129.5c33.828-43.187,75.621-83.486,125.377-111.14C282.54,13.9,340.259-1.343,405.943.093Q412.957,6.268,419.562,12.354Z" transform="translate(0.601 0.526)" fill="#7f7f7f"/>
              <path id="Path_573-2" data-name="Path 573" d="M419.6,12.358c-65.683-2-123.4,12.618-173.159,40.076C196.682,79.647,154.89,119.7,121.062,162.925,87.233,206.177,61.368,252.6,43.467,293.269c-17.9,40.978-27.839,76.2-29.812,104.142Q7.032,391.338,0,384.584c1.974-27.2,11.911-61.669,29.812-102.109a629.587,629.587,0,0,1,77.595-129.453c33.829-43.184,75.621-83.493,125.377-111.165C282.54,13.948,340.259-1.323,405.943.09Q412.974,6.271,419.6,12.358Z" transform="translate(0 0)" fill="url(#linear-gradient-13)"/>
            </g>
            <g id="Group_456-2" data-name="Group 456" transform="translate(201.902 182.52)">
              <path id="Path_574-2" data-name="Path 574" d="M418.854,12.365C353.171,9.709,295.451,23.64,245.7,50.611c-49.756,26.72-91.548,66.48-125.377,109.672C86.49,203.5,60.625,250.15,42.724,291.228c-17.9,41.379-27.838,77.184-29.812,105.63Q6.66,391.343,0,385.223c1.974-27.877,11.911-63.039,29.812-103.974,17.9-40.628,43.766-87.031,77.595-130.284,33.828-43.22,75.621-83.3,125.377-110.551C282.539,12.913,340.259-1.768,405.942.17Q412.6,6.276,418.854,12.365Z" transform="translate(0.571 0.518)" fill="#7f7f7f"/>
              <path id="Path_575-2" data-name="Path 575" d="M418.889,12.36C353.206,9.738,295.486,23.7,245.73,50.7c-49.756,26.745-91.548,66.52-125.377,109.715-33.829,43.218-59.694,89.86-77.595,130.921C24.858,332.7,14.92,368.477,12.947,396.9Q6.678,391.363,0,385.215c1.974-27.849,11.911-62.98,29.813-103.894,17.9-40.607,43.766-87,77.595-130.249,33.828-43.22,75.621-83.307,125.377-110.584C282.54,12.966,340.259-1.746,405.943.166Q412.62,6.273,418.889,12.36Z" transform="translate(0 0)" fill="url(#linear-gradient-14)"/>
            </g>
            <g id="Group_457-2" data-name="Group 457" transform="translate(213.147 192.944)">
              <path id="Path_576-2" data-name="Path 576" d="M418.146,12.546c-65.683-3.4-123.4,9.789-173.159,36.225-49.756,26.179-91.548,65.6-125.377,108.712-33.828,43.125-59.693,89.94-77.595,131.332C24.115,330.5,14.178,366.763,12.2,395.565q-5.9-5.049-12.2-10.628c1.974-28.38,11.911-64.1,29.813-105.432,17.9-41.026,43.766-87.656,77.595-130.882,33.829-43.2,75.621-83,125.377-109.793C282.54,11.785,340.259-2.255,405.943.3Q412.249,6.394,418.146,12.546Z" transform="translate(0.54 0.514)" fill="#7f7f7f"/>
              <path id="Path_577-2" data-name="Path 577" d="M418.181,12.533C352.5,9.17,294.778,22.4,245.022,48.864c-49.756,26.207-91.548,65.65-125.377,108.763-33.828,43.131-59.693,89.939-77.595,131.317-17.9,41.672-27.839,77.914-29.812,106.7Q6.324,390.576,0,384.971C1.974,356.613,11.911,320.914,29.812,279.6c17.9-41.008,43.766-87.628,77.595-130.856,33.828-43.2,75.621-83.016,125.377-109.835C282.539,11.844,340.259-2.229,405.943.288Q412.266,6.385,418.181,12.533Z" transform="translate(0 0)" fill="url(#linear-gradient-15)"/>
            </g>
            <g id="Group_458-2" data-name="Group 458" transform="translate(223.779 203.336)">
              <path id="Path_578-2" data-name="Path 578" d="M417.438,12.915C351.755,8.642,294.035,21,244.279,46.834,194.524,72.4,152.731,111.434,118.9,154.406S59.209,244.313,41.308,285.95c-17.9,41.924-27.838,78.56-29.812,107.6Q5.952,388.9,0,383.8c1.974-28.755,11.911-64.951,29.812-106.6,17.9-41.351,43.766-88.151,77.595-131.3,33.829-43.124,75.621-82.6,125.377-108.861C282.54,10.525,340.259-2.789,405.943.489Q411.9,6.641,417.438,12.915Z" transform="translate(0.51 0.515)" fill="#7f7f7f"/>
              <path id="Path_579-2" data-name="Path 579" d="M417.473,12.892c-65.683-4.227-123.4,8.178-173.159,34.04-49.756,25.6-91.548,64.653-125.377,107.633S59.245,244.476,41.343,286.1c-17.9,41.914-27.839,78.533-29.812,107.564Q5.97,389,0,383.875c1.974-28.739,11.911-64.914,29.813-106.546,17.9-41.337,43.766-88.13,77.595-131.28,33.828-43.129,75.621-82.619,125.377-108.911C282.54,10.59,340.259-2.761,405.943.477Q411.913,6.625,417.473,12.892Z" transform="translate(0 0)" fill="url(#linear-gradient-16)"/>
            </g>
            <g id="Group_459-2" data-name="Group 459" transform="translate(233.8 213.776)">
              <path id="Path_580-2" data-name="Path 580" d="M416.73,13.493c-65.683-5.275-123.4,6.164-173.159,31.312-49.756,24.879-91.548,63.468-125.377,106.251S58.5,240.83,40.6,282.647c-17.9,42.1-27.839,79.03-29.812,108.2Q5.6,386.533,0,381.842c1.974-29.011,11.911-65.592,29.812-107.487,17.9-41.606,43.766-88.525,77.595-131.535S183.028,60.734,232.783,35.071C282.54,9.145,340.259-3.353,405.942.775Q411.541,7.04,416.73,13.493Z" transform="translate(0.48 0.519)" fill="#7f7f7f"/>
              <path id="Path_581-2" data-name="Path 581" d="M416.765,13.46c-65.683-5.222-123.4,6.264-173.159,31.448-49.756,24.914-91.548,63.527-125.377,106.32S58.536,241.011,40.635,282.821C22.734,324.913,12.8,361.831,10.823,391Q5.616,386.668,0,381.958c1.974-29,11.911-65.565,29.813-107.449,17.9-41.6,43.766-88.509,77.595-131.527S183.028,60.867,232.784,35.173C282.54,9.216,340.259-3.325,405.943.758Q411.559,7.016,416.765,13.46Z" transform="translate(0 0)" fill="url(#linear-gradient-17)"/>
            </g>
            <g id="Group_460-2" data-name="Group 460" transform="translate(243.208 224.335)">
              <path id="Path_582-2" data-name="Path 582" d="M416.022,14.305c-65.683-6.414-123.4,4-173.159,28.393-49.756,24.115-91.548,62.2-125.377,104.747S57.793,236.989,39.892,278.929C21.991,321.146,12.054,358.3,10.08,387.5Q5.245,383.454,0,379.108c1.974-29.156,11.911-66.045,29.812-108.124,17.9-41.8,43.766-88.784,77.595-131.607S183.028,57.908,232.784,32.921C282.54,7.664,340.259-3.926,405.943,1.184Q411.187,7.618,416.022,14.305Z" transform="translate(0.45 0.527)" fill="#7f7f7f"/>
              <path id="Path_583-2" data-name="Path 583" d="M416.057,14.259C350.374,7.905,292.654,18.374,242.9,42.8,193.142,66.959,151.35,105.074,117.522,147.63S57.828,237.187,39.927,279.123c-17.9,42.211-27.839,79.357-29.813,108.556Q5.262,383.623,0,379.261c1.974-29.151,11.911-66.026,29.812-108.1,17.9-41.789,43.766-88.774,77.595-131.607s75.621-81.5,125.377-106.525C282.54,7.739,340.259-3.9,405.943,1.16Q411.2,7.585,416.057,14.259Z" transform="translate(0 0)" fill="url(#linear-gradient-18)"/>
            </g>
            <g id="Group_461-2" data-name="Group 461" transform="translate(252.004 235.076)">
              <path id="Path_584-2" data-name="Path 584" d="M415.314,15.379c-65.683-7.7-123.4,1.6-173.159,25.151C192.4,63.8,150.607,101.336,116.779,143.591S57.085,232.813,39.184,274.825c-17.9,42.281-27.839,79.6-29.812,108.735C6.384,381,3.26,378.371,0,375.649c1.974-29.2,11.911-66.324,29.812-108.528,17.9-41.929,43.766-88.938,77.595-131.523S183.028,54.852,232.784,30.616C282.54,6.106,340.259-4.478,405.943,1.749Q410.833,8.407,415.314,15.379Z" transform="translate(0.419 0.537)" fill="#7f7f7f"/>
              <path id="Path_585-2" data-name="Path 585" d="M415.349,15.32c-65.683-7.629-123.4,1.722-173.159,25.319-49.756,23.316-91.548,60.878-125.377,103.149S57.12,233.027,39.219,275.036c-17.9,42.278-27.839,79.589-29.812,108.731-3-2.568-6.135-5.2-9.407-7.931,1.974-29.2,11.911-66.314,29.812-108.514,17.9-41.923,43.766-88.933,77.595-131.53S183.028,55.008,232.783,30.734C282.54,6.184,340.259-4.452,405.942,1.716Q410.851,8.363,415.349,15.32Z" transform="translate(0 0)" fill="url(#linear-gradient-19)"/>
            </g>
            <g id="Group_462-2" data-name="Group 462" transform="translate(260.187 246.053)">
              <path id="Path_586-2" data-name="Path 586" d="M414.606,16.747c-65.683-9.125-123.4-1.062-173.159,21.575C191.692,60.672,149.9,97.6,116.071,139.517S56.377,228.334,38.476,270.37c-17.9,42.3-27.839,79.723-29.812,108.72-2.752-2.471-5.64-4.983-8.664-7.563C1.974,342.374,11.911,305.08,29.812,262.8c17.9-42.007,43.766-89,77.595-131.294S183.028,51.59,232.783,28.185C282.54,4.5,340.259-4.978,405.942,2.508Q410.479,9.443,414.606,16.747Z" transform="translate(0.389 0.55)" fill="#7f7f7f"/>
              <path id="Path_587-2" data-name="Path 587" d="M414.642,16.672c-65.683-9.051-123.4-.924-173.159,21.76-49.756,22.4-91.548,59.352-125.377,101.291S56.413,228.562,38.511,270.6C20.61,312.9,10.673,350.317,8.7,379.322c-2.763-2.475-5.663-4.991-8.7-7.577C1.974,342.588,11.911,305.3,29.813,263.026c17.9-42,43.766-89,77.595-131.309s75.621-79.962,125.377-103.41C282.54,4.579,340.259-4.955,405.943,2.465Q410.5,9.386,414.642,16.672Z" transform="translate(0 0)" fill="url(#linear-gradient-20)"/>
            </g>
            <g id="Group_463-2" data-name="Group 463" transform="translate(267.759 257.312)">
              <path id="Path_588-2" data-name="Path 588" d="M413.9,18.443C348.215,7.736,290.5,14.461,240.74,36.1c-49.756,21.345-91.548,57.605-125.377,99.149-33.829,41.524-59.694,88.337-77.595,130.358-17.9,42.278-27.839,79.764-29.812,108.55C5.44,371.733,2.788,369.294,0,366.812c1.974-29.024,11.911-66.434,29.812-108.736,17.9-42.038,43.766-88.969,77.595-130.933s75.621-78.99,125.377-101.485C282.54,2.875,340.259-5.388,405.943,3.5Q410.125,10.763,413.9,18.443Z" transform="translate(0.358 0.565)" fill="#7f7f7f"/>
              <path id="Path_589-2" data-name="Path 589" d="M413.933,18.351C348.25,7.726,290.531,14.52,240.775,36.21,191.019,57.607,149.226,93.9,115.4,135.465,81.569,177.008,55.7,223.827,37.8,265.85,19.9,308.129,9.965,345.613,7.991,374.411,5.464,371.986,2.8,369.544,0,367.058c1.974-29.032,11.911-66.438,29.812-108.739,17.9-42.038,43.766-88.972,77.594-130.954s75.621-79.038,125.377-101.58C282.54,2.955,340.259-5.37,405.943,3.448Q410.143,10.691,413.933,18.351Z" transform="translate(0 0)" fill="url(#linear-gradient-21)"/>
            </g>
            <g id="Group_464-2" data-name="Group 464" transform="translate(274.717 268.889)">
              <path id="Path_590-2" data-name="Path 590" d="M413.191,20.5c-65.683-12.446-123.4-7.171-173.159,13.39-49.756,20.259-91.548,55.8-125.377,96.93-33.828,41.1-59.693,87.788-77.595,129.762-17.9,42.224-27.839,79.735-29.812,108.253-2.28-2.42-4.7-4.83-7.248-7.258,1.974-28.824,11.911-66.3,29.813-108.589,17.9-42.029,43.766-88.867,77.595-130.455,33.828-41.6,75.621-77.964,125.377-99.467C282.54,1.272,340.259-5.67,405.943,4.78Q409.771,12.408,413.191,20.5Z" transform="translate(0.329 0.582)" fill="#7f7f7f"/>
              <path id="Path_591-2" data-name="Path 591" d="M413.226,20.393C347.542,8.036,289.823,13.386,240.067,34c-49.756,20.315-91.548,55.9-125.377,97.044C80.862,172.168,55,218.863,37.1,260.84c-17.9,42.228-27.838,79.738-29.812,108.27-2.291-2.419-4.719-4.829-7.283-7.26,1.974-28.835,11.911-66.311,29.812-108.6,17.9-42.031,43.766-88.874,77.595-130.481C141.236,81.146,183.028,44.753,232.784,23.2,282.54,1.35,340.259-5.659,405.943,4.71Q409.789,12.319,413.226,20.393Z" transform="translate(0 0)" fill="url(#linear-gradient-22)"/>
            </g>
            <g id="Group_465-2" data-name="Group 465" transform="translate(281.064 280.811)">
              <path id="Path_592-2" data-name="Path 592" d="M412.482,22.965C346.8,8.618,289.08,12.332,239.324,31.732c-49.756,19.092-91.548,53.87-125.377,94.544C80.119,166.916,54.254,213.457,36.352,255.36,18.451,297.506,8.514,335.014,6.54,363.216c-2.043-2.457-4.224-4.88-6.54-7.3,1.974-28.564,11.911-66.071,29.813-108.309,17.9-41.987,43.766-88.7,77.595-129.874,33.828-41.193,75.621-76.845,125.377-97.276C282.54-.271,340.259-5.782,405.943,6.383Q409.417,14.419,412.482,22.965Z" transform="translate(0.298 0.599)" fill="#7f7f7f"/>
              <path id="Path_593-2" data-name="Path 593" d="M412.518,22.834c-65.683-14.249-123.4-10.455-173.159,9C189.6,50.989,147.811,85.806,113.982,126.5c-33.828,40.664-59.693,87.213-77.594,129.119C18.486,297.773,8.549,335.281,6.575,363.5,4.52,361.047,2.328,358.625,0,356.208c1.974-28.578,11.911-66.085,29.813-108.326,17.9-41.99,43.766-88.713,77.595-129.9,33.828-41.214,75.621-76.9,125.377-97.388C282.54-.2,340.259-5.781,405.943,6.3Q409.435,14.311,412.518,22.834Z" transform="translate(0 0)" fill="url(#linear-gradient-23)"/>
            </g>
            <g id="Group_466-2" data-name="Group 466" transform="translate(286.799 293.099)">
              <path id="Path_594-2" data-name="Path 594" d="M411.775,25.864c-65.683-16.412-123.4-14.375-173.159,3.783-49.756,17.844-91.548,51.807-125.377,92C79.41,161.791,53.546,208.169,35.645,249.983c-17.9,42.052-27.839,79.54-29.812,107.391C4.024,354.842,2.08,352.364,0,349.916c1.974-28.255,11.911-65.763,29.813-107.927,17.9-41.918,43.766-88.492,77.594-129.208,33.829-40.745,75.621-75.638,125.377-94.914C282.54-1.716,340.259-5.682,405.943,8.358Q409.063,16.838,411.775,25.864Z" transform="translate(0.268 0.618)" fill="#7f7f7f"/>
              <path id="Path_595-2" data-name="Path 595" d="M411.809,25.71C346.126,9.4,288.407,11.527,238.651,29.748,188.895,47.655,147.1,81.66,113.274,121.873c-33.828,40.174-59.693,86.561-77.595,128.38C17.778,292.309,7.841,329.8,5.867,357.668c-1.819-2.529-3.775-5-5.867-7.448,1.974-28.271,11.911-65.78,29.812-107.947,17.9-41.923,43.766-88.5,77.594-129.242,33.829-40.768,75.621-75.7,125.377-95.035C282.54-1.647,340.259-5.693,405.943,8.251Q409.081,16.708,411.809,25.71Z" transform="translate(0 0)" fill="url(#linear-gradient-24)"/>
            </g>
            <g id="Group_467-2" data-name="Group 467" transform="translate(291.921 305.764)">
              <path id="Path_596-2" data-name="Path 596" d="M411.067,29.235c-65.683-18.645-123.4-18.4-173.159-1.565-49.756,16.515-91.548,49.618-125.377,89.293C78.7,156.592,52.838,202.8,34.937,244.517,17.035,286.466,7.1,323.926,5.124,351.4c-1.572-2.648-3.28-5.219-5.124-7.738,1.974-27.909,11.911-65.4,29.813-107.47,17.9-41.832,43.766-88.245,77.595-128.474,33.828-40.264,75.621-74.35,125.377-92.391C282.54-3.021,340.259-5.329,405.943,10.75Q408.709,19.705,411.067,29.235Z" transform="translate(0.237 0.637)" fill="#7f7f7f"/>
              <path id="Path_597-2" data-name="Path 597" d="M411.1,29.057c-65.683-18.531-123.4-18.194-173.159-1.292-49.756,16.582-91.548,49.729-125.376,89.43-33.829,39.656-59.694,85.871-77.595,127.594C17.071,286.743,7.133,324.2,5.159,351.7c-1.583-2.642-3.3-5.207-5.159-7.721,1.974-27.927,11.911-65.418,29.812-107.494,17.9-41.837,43.766-88.258,77.595-128.512,33.829-40.289,75.621-74.416,125.377-92.519C282.54-2.96,340.259-5.353,405.943,10.621Q408.727,19.552,411.1,29.057Z" transform="translate(0 0)" fill="url(#linear-gradient-25)"/>
            </g>
            <g id="Group_468-2" data-name="Group 468" transform="translate(296.431 318.812)">
              <path id="Path_598-2" data-name="Path 598" d="M410.359,33.108C344.675,12.06,286.956,10.4,237.2,25.83c-49.756,15.106-91.548,47.307-125.377,86.447C77.995,151.364,52.13,197.4,34.229,239.019,16.327,280.866,6.39,318.3,4.416,345.4A88.864,88.864,0,0,0,0,337.269c1.974-27.538,11.911-65,29.813-106.97,17.9-41.737,43.766-87.978,77.594-127.692,33.829-39.756,75.621-72.988,125.377-89.712C282.54-4.149,340.259-4.683,405.942,13.6Q408.355,23.057,410.359,33.108Z" transform="translate(0.207 0.656)" fill="#7f7f7f"/>
              <path id="Path_599-2" data-name="Path 599" d="M410.394,32.9c-65.683-20.925-123.4-22.491-173.159-6.988-49.756,15.178-91.548,47.424-125.377,86.591C78.03,151.623,52.165,197.664,34.263,239.291c-17.9,41.852-27.839,79.29-29.812,106.4A89.01,89.01,0,0,0,0,337.587c1.974-27.557,11.911-65.021,29.812-107,17.9-41.741,43.766-87.992,77.595-127.732C141.235,63.079,183.028,29.8,232.783,13.012,282.54-4.1,340.259-4.722,405.943,13.45Q408.372,22.879,410.394,32.9Z" transform="translate(0 0)" fill="url(#linear-gradient-26)"/>
            </g>
          </g>
        </g>
      </g>
    </g>
  </g>
</svg>
