<svg xmlns="http://www.w3.org/2000/svg" width="20" height="20" viewBox="0 0 20 20"><path d="M19.826,25.32a.8.8,0,0,0-.647-.345H3.541L3.308,22.15a.853.853,0,0,0-.818-.816H.821a.9.9,0,0,0,0,1.792h.918l.9,10.943c0,.013,0,.026,0,.039a.98.98,0,0,0,.011.1l.033.4c0,.008,0,.015,0,.023a3.537,3.537,0,0,0,1.181,2.313,2.862,2.862,0,0,0-.529,1.672,2.614,2.614,0,0,0,2.49,2.717,2.614,2.614,0,0,0,2.49-2.717,2.926,2.926,0,0,0-.149-.925h4.5a2.925,2.925,0,0,0-.149.925,2.614,2.614,0,0,0,2.49,2.717,2.727,2.727,0,0,0,0-5.434H5.833a1.529,1.529,0,0,1-1.4-1.009l13.127-.842a.844.844,0,0,0,.749-.677l1.669-7.283a.961.961,0,0,0-.149-.769Z" transform="translate(0 -21.334)"/></svg>