<svg xmlns="http://www.w3.org/2000/svg" xmlns:xlink="http://www.w3.org/1999/xlink" width="231" height="64" viewBox="0 0 231 64"><defs><path id="mpw1a" d="M124.75 47.28a7.88 7.88 0 0 1 1.36 4.7c0 2.5-.68 4.9-2.69 6.56-2.1 1.73-5.12 2.15-7.78 2.15h-10.13V31.07h9.07c2.58 0 5.57.35 7.72 1.87 1.96 1.39 2.77 3.4 2.77 5.75a7.2 7.2 0 0 1-1.07 4.07 6.87 6.87 0 0 1-2.28 2.05 8.23 8.23 0 0 1 3.03 2.47zm22.8 4.14h-9.41l-2.86 9.27h-4.05l9.4-29.62h4.6l9.4 29.62h-4.2zm34.05.2c-.56 2.6-1.6 5.29-3.6 7.13-1.9 1.74-4.29 2.41-6.84 2.41-3.55 0-6.5-1.3-8.58-4.15-2.34-3.22-2.95-7.55-2.95-11.42 0-3.77.62-7.95 2.96-11.06 2.1-2.8 5.07-4.01 8.57-4.01 2.38 0 4.62.6 6.45 2.16 1.93 1.65 3.04 4.07 3.7 6.46l.2.69-3.8.89-.2-.6c-.53-1.62-1.34-3.4-2.64-4.56a5.6 5.6 0 0 0-3.87-1.39c-2.3 0-4.01.96-5.24 2.88-1.58 2.46-1.95 5.87-1.95 8.73 0 2.9.4 6.27 2.04 8.77a6.1 6.1 0 0 0 5.42 2.96c1.6 0 3.03-.45 4.17-1.59 1.33-1.31 2.04-3.33 2.44-5.1l.16-.68 3.7.81zm21.94 8.62c-1.51.72-3.18 1-4.85 1-3.54 0-6.57-1.19-8.68-4.04-2.35-3.15-2.93-7.48-2.93-11.28 0-3.85.62-8.1 2.99-11.29 2.1-2.85 5.08-4.11 8.61-4.11 2.43 0 4.77.58 6.62 2.2 1.95 1.71 3 4.29 3.62 6.73l.18.7-3.86.8-.17-.64c-.44-1.65-1.18-3.51-2.46-4.7a5.57 5.57 0 0 0-3.96-1.44c-2.33 0-4.11.93-5.4 2.86-1.61 2.41-1.99 5.74-1.99 8.57 0 2.92.35 6.57 2.03 9.07 1.36 2.03 3.34 2.88 5.77 2.88 1.72 0 3.35-.43 4.62-1.62a5.54 5.54 0 0 0 1.72-4.26v-2.32h-7.12v-3.5h11.38V60.7h-3.74v-2.06a9.6 9.6 0 0 1-2.38 1.61zm-93.97-13.28v10.08h6.18c1.6 0 3.38-.27 4.65-1.32 1.13-.94 1.53-2.27 1.53-3.7 0-1.48-.4-2.85-1.62-3.78-1.43-1.07-3.66-1.28-5.39-1.28zm0-3.61h5.72c1.45 0 3.1-.23 4.26-1.15 1.01-.8 1.38-1.9 1.38-3.17 0-1.28-.36-2.44-1.44-3.2-1.31-.94-3.4-1.1-4.95-1.1h-4.97zm29.7 4.42h7.19l-3.58-11.8z"/><path id="mpw1b" d="M236.11 84.01c1.17 0 2.04.23 2.63.68.59.46.88 1.14.88 2.04 0 .9-.28 1.59-.84 2.05-.56.46-1.4.69-2.5.69h-1.8v4.35h-.9v-9.8zm.38 4.64c.7 0 1.24-.16 1.61-.5.38-.33.57-.8.57-1.42 0-.66-.2-1.14-.6-1.46-.4-.31-1.01-.47-1.84-.47h-1.75v3.85zm-11.72 1.96c0 .83.22 1.46.67 1.91.44.45 1.09.67 1.92.67.83 0 1.47-.22 1.92-.67.44-.45.66-1.08.66-1.9v-6.6h.92v6.6c0 1.08-.3 1.91-.9 2.5-.6.57-1.46.86-2.6.86-1.13 0-2-.3-2.6-.87-.6-.58-.9-1.41-.9-2.5v-6.6h.9v6.6zm-10.6-1.7a5.9 5.9 0 0 1 1.06-3.68 3.35 3.35 0 0 1 2.8-1.38c1.15 0 2.08.46 2.78 1.38.7.92 1.04 2.15 1.04 3.68 0 1.54-.34 2.76-1.04 3.69a3.32 3.32 0 0 1-2.79 1.38 3.35 3.35 0 0 1-2.79-1.38 5.9 5.9 0 0 1-1.05-3.69zm.96 0c0 1.33.25 2.38.77 3.14a2.43 2.43 0 0 0 2.12 1.14c.9 0 1.6-.38 2.12-1.14.52-.76.78-1.81.78-3.14a5.5 5.5 0 0 0-.78-3.13 2.43 2.43 0 0 0-2.12-1.14c-.9 0-1.6.38-2.12 1.14a5.5 5.5 0 0 0-.77 3.13zm-6.1-4.9c1.17 0 2.05.22 2.63.67.6.45.89 1.11.89 2 0 .66-.17 1.2-.5 1.63-.32.43-.81.73-1.46.92l2.36 4.59h-1.03l-2.28-4.46h-2.42v4.46h-.91v-9.8zm.13.79h-1.94v3.79h2.21c.7 0 1.23-.17 1.6-.5.38-.32.56-.8.56-1.4 0-.64-.2-1.12-.6-1.43-.4-.3-1-.46-1.83-.46zM203 92.7a3.18 3.18 0 0 1-2.72 1.3 3.23 3.23 0 0 1-2.78-1.3c-.64-.87-.96-2.13-.96-3.78 0-1.63.33-2.9.98-3.78a3.22 3.22 0 0 1 2.76-1.33c.88 0 1.58.24 2.1.7.53.47.92 1.21 1.18 2.22l-.86.18a3.68 3.68 0 0 0-.9-1.75c-.4-.37-.91-.56-1.53-.56-.89 0-1.57.36-2.05 1.1a5.63 5.63 0 0 0-.73 3.1c0 1.46.25 2.55.74 3.29.48.74 1.21 1.1 2.18 1.1.72 0 1.3-.2 1.75-.62.44-.42.66-.97.66-1.66v-1.04h-2.44v-.74h3.42v4.67h-.8zm-14.16.97c-.44.22-.96.33-1.55.33a3.23 3.23 0 0 1-2.79-1.3c-.63-.87-.95-2.13-.95-3.78 0-1.63.32-2.9.97-3.78a3.22 3.22 0 0 1 2.76-1.33c.88 0 1.59.24 2.11.7.53.47.92 1.21 1.17 2.22l-.85.18a3.69 3.69 0 0 0-.91-1.75c-.4-.37-.9-.56-1.53-.56-.88 0-1.57.36-2.05 1.1a5.63 5.63 0 0 0-.72 3.1c0 1.46.24 2.55.73 3.29.49.74 1.22 1.1 2.18 1.1.73 0 1.31-.2 1.75-.62.45-.42.67-.97.67-1.66v-1.04h-2.45v-.74h3.42v4.67h-.8v-1.1c-.32.44-.71.76-1.16.97zm-13.35-8.96v9.1h-.88v-9.8h1.48l4.7 8.26v-8.27h.88v9.8h-.97zm-4.57 9.1v-9.8h.91v9.8zm-5.56 0V84.8h-2.9V84h6.72v.79h-2.9v9.02zm-7.7-9.8h.9v9h4.4v.8h-5.3zm-8.86 6.6c0 .82.22 1.45.67 1.9.44.45 1.09.67 1.92.67.84 0 1.47-.22 1.92-.67.45-.45.67-1.08.67-1.9v-6.6h.9v6.6c0 1.08-.3 1.91-.89 2.5-.6.57-1.46.86-2.6.86-1.13 0-2-.3-2.6-.87-.6-.58-.9-1.41-.9-2.5v-6.6h.9v6.6zm-9.16.85l.79-.33c.26.7.6 1.22 1.02 1.55.41.33.92.5 1.52.5.62 0 1.12-.17 1.5-.52.38-.35.56-.81.56-1.38 0-.46-.12-.83-.37-1.13-.25-.3-.67-.56-1.26-.8a30.1 30.1 0 0 0-1.28-.47 6.96 6.96 0 0 1-1.02-.4 2.9 2.9 0 0 1-1.01-.88c-.2-.3-.3-.69-.3-1.14 0-.82.25-1.46.75-1.92a2.9 2.9 0 0 1 2.06-.7c.78 0 1.42.19 1.93.57.5.38.9.97 1.16 1.76l-.78.25a3.09 3.09 0 0 0-.93-1.36c-.39-.29-.86-.43-1.42-.43-.55 0-.99.15-1.33.47-.34.31-.5.72-.5 1.22 0 .38.1.7.32.97.22.26.56.47 1.02.63l.77.28c.97.32 1.6.58 1.87.77.45.3.77.61.97.96.2.35.3.76.3 1.23 0 .86-.27 1.54-.8 2.05-.55.5-1.28.76-2.21.76-.83 0-1.52-.2-2.05-.61a4.06 4.06 0 0 1-1.28-1.9zm-8.06-6.75v9.1h-.88v-9.8h1.48l4.7 8.26v-8.27h.88v9.8h-.96zm-10.55 4.2a5.9 5.9 0 0 1 1.06-3.69 3.35 3.35 0 0 1 2.79-1.38c1.15 0 2.08.46 2.78 1.38.7.92 1.05 2.15 1.05 3.68 0 1.54-.35 2.76-1.05 3.69a3.32 3.32 0 0 1-2.78 1.38 3.35 3.35 0 0 1-2.8-1.38 5.9 5.9 0 0 1-1.05-3.69zm.95 0c0 1.32.26 2.37.78 3.13a2.43 2.43 0 0 0 2.12 1.14c.9 0 1.6-.38 2.11-1.14.52-.76.78-1.81.78-3.14s-.26-2.37-.78-3.13a2.43 2.43 0 0 0-2.11-1.14c-.9 0-1.6.38-2.12 1.14a5.5 5.5 0 0 0-.78 3.13zm-2.03 1.94a4.4 4.4 0 0 1-1.16 2.35c-.55.51-1.28.77-2.18.77-1.19 0-2.1-.45-2.75-1.34-.64-.9-.96-2.17-.96-3.83 0-1.6.32-2.83.96-3.7a3.22 3.22 0 0 1 2.75-1.29c.84 0 1.52.23 2.05.7.54.45.94 1.16 1.2 2.12l-.84.2a3.83 3.83 0 0 0-.98-1.69c-.4-.36-.9-.54-1.49-.54-.86 0-1.53.37-2 1.1-.46.75-.7 1.8-.7 3.17 0 1.36.25 2.42.74 3.18.49.75 1.18 1.13 2.06 1.13.65 0 1.19-.2 1.6-.62.4-.41.71-1.04.9-1.9zm-19.14-.25c0 .83.22 1.46.67 1.91.44.45 1.09.67 1.92.67.83 0 1.47-.22 1.92-.67.44-.45.67-1.08.67-1.9v-6.6h.9v6.6c0 1.08-.3 1.91-.9 2.5-.59.57-1.45.86-2.59.86-1.13 0-2-.3-2.6-.87-.6-.58-.9-1.41-.9-2.5v-6.6h.9zm-8.73-6.6h.9v5.3l4.4-5.3h1.15l-3.15 3.75 3.53 6.06h-1.02l-3.14-5.33-1.76 2.06v3.27h-.91zm-8.99 9.8l3.07-9.8h1.23l3.07 9.8h-.94l-.98-3.21h-3.58l-.98 3.22zm2.1-4h3.12l-1.55-5.17zM78.42 84c1.1 0 1.94.2 2.5.6.57.41.86 1.01.86 1.8 0 .53-.11.96-.33 1.29-.22.33-.58.6-1.06.82v.07c.6.24 1.03.55 1.32.95.28.4.42.89.42 1.5 0 .92-.28 1.62-.84 2.08-.55.47-1.39.7-2.5.7h-3.24v-9.8zm.12 5.04h-2.08v3.98h2.36c.76 0 1.34-.17 1.75-.52.4-.34.6-.83.6-1.47 0-.67-.2-1.17-.64-1.5-.43-.33-1.1-.5-2-.5zm-.13-4.25h-1.95v3.48h2.2c.7 0 1.24-.15 1.61-.46.38-.3.57-.73.57-1.28 0-.6-.2-1.03-.6-1.31a3.18 3.18 0 0 0-1.83-.43z"/><path id="mpw1c" d="M157.58 68.52c50.61 0 94.35 6.41 115.07 14.28-25.36-6.1-67.44-10.1-115.07-10.1-47.62 0-89.7 4-115.06 10.1 20.72-7.87 64.45-14.28 115.06-14.28"/></defs><g><g transform="translate(-42 -30)"><use fill="#2b2a29" xlink:href="#mpw1a"/></g><g transform="translate(-42 -30)"><use fill="#727271" xlink:href="#mpw1b"/></g><g transform="translate(-42 -30)"><use fill="#259821" xlink:href="#mpw1c"/></g></g></svg>