<svg xmlns="http://www.w3.org/2000/svg" xmlns:xlink="http://www.w3.org/1999/xlink" width="132" height="36" viewBox="0 0 132 36"><defs><path id="v7xka" d="M438 2041.63c.56.8.77 1.75.77 2.71 0 1.44-.39 2.82-1.54 3.77-1.2 1-2.92 1.24-4.44 1.24H427v-17.04h5.18c1.48 0 3.18.2 4.42 1.08a3.82 3.82 0 0 1 1.58 3.3c0 .83-.15 1.66-.61 2.35-.33.5-.8.88-1.3 1.18.67.34 1.28.8 1.72 1.41zm13.02 2.39h-5.37l-1.64 5.33h-2.32l5.38-17.04h2.62l5.38 17.04h-2.4zm19.46.12a7.74 7.74 0 0 1-2.06 4.1 5.55 5.55 0 0 1-3.9 1.38 5.72 5.72 0 0 1-4.9-2.39c-1.35-1.85-1.7-4.34-1.7-6.56 0-2.17.36-4.58 1.7-6.36 1.2-1.61 2.9-2.31 4.9-2.31a5.5 5.5 0 0 1 3.68 1.24 7.45 7.45 0 0 1 2.12 3.71l.11.4-2.17.51-.11-.35a6.09 6.09 0 0 0-1.51-2.61 3.19 3.19 0 0 0-2.22-.8c-1.31 0-2.29.55-3 1.65-.9 1.42-1.1 3.38-1.1 5.02 0 1.67.22 3.61 1.16 5.05a3.48 3.48 0 0 0 3.1 1.7c.91 0 1.73-.26 2.38-.91a6.08 6.08 0 0 0 1.4-2.94l.08-.39 2.12.47zm12.54 4.95a6.4 6.4 0 0 1-2.78.57 5.81 5.81 0 0 1-4.96-2.32c-1.33-1.81-1.67-4.3-1.67-6.49 0-2.2.36-4.66 1.7-6.49a5.79 5.79 0 0 1 4.93-2.36c1.39 0 2.73.33 3.78 1.27a7.55 7.55 0 0 1 2.07 3.86l.1.4-2.2.46-.1-.36a5.83 5.83 0 0 0-1.4-2.7c-.63-.6-1.41-.83-2.27-.83-1.33 0-2.35.54-3.08 1.64-.92 1.39-1.14 3.3-1.14 4.93 0 1.68.2 3.78 1.16 5.22a3.69 3.69 0 0 0 3.3 1.65c.98 0 1.9-.24 2.64-.93.7-.66.98-1.5.98-2.45v-1.33H480v-2.01h6.5v8.53h-2.13v-1.19c-.4.38-.86.69-1.36.93zm-53.7-7.64v5.8h3.53c.92 0 1.94-.16 2.66-.76.65-.54.87-1.3.87-2.13 0-.85-.22-1.64-.93-2.17-.8-.61-2.09-.74-3.07-.74zm0-2.07h3.27c.83 0 1.77-.13 2.43-.66.58-.46.8-1.1.8-1.82 0-.74-.21-1.4-.83-1.85-.75-.53-1.94-.63-2.83-.63h-2.84zm16.97 2.54h4.1l-2.03-6.78z"/><path id="v7xkb" d="M500.76 2062.11c.66 0 1.16.13 1.5.4.33.25.5.64.5 1.16 0 .52-.16.92-.48 1.18-.32.27-.8.4-1.43.4h-1.03v2.5h-.52v-5.64zm.21 2.67c.4 0 .7-.1.92-.29.22-.19.33-.46.33-.82 0-.37-.12-.65-.35-.84-.23-.18-.58-.27-1.04-.27h-1v2.22zm-6.7 1.13c0 .47.13.84.39 1.1.25.25.62.38 1.1.38.47 0 .84-.13 1.09-.39.25-.25.38-.62.38-1.1v-3.79h.52v3.8c0 .62-.17 1.1-.51 1.43-.34.33-.84.5-1.48.5-.65 0-1.15-.17-1.5-.5-.34-.33-.5-.8-.5-1.43v-3.8h.51v3.8zm-6.05-.98c0-.88.2-1.59.6-2.12.4-.53.94-.8 1.6-.8.66 0 1.19.27 1.59.8.4.53.6 1.24.6 2.12 0 .88-.2 1.59-.6 2.12-.4.53-.93.8-1.59.8s-1.2-.27-1.6-.8c-.4-.53-.6-1.24-.6-2.12zm.54 0c0 .76.15 1.36.45 1.8.3.44.7.66 1.2.66.52 0 .92-.22 1.22-.66.3-.44.44-1.04.44-1.8 0-.77-.15-1.37-.44-1.8-.3-.44-.7-.66-1.21-.66s-.92.22-1.21.65c-.3.44-.45 1.04-.45 1.8zm-3.48-2.82c.67 0 1.17.13 1.5.38.34.26.5.64.5 1.15 0 .38-.08.7-.27.94-.19.25-.47.42-.84.53l1.35 2.64h-.59l-1.3-2.56h-1.39v2.56h-.52v-5.64zm.07.45h-1.1v2.18h1.26c.4 0 .7-.1.92-.28.2-.2.32-.46.32-.81 0-.37-.12-.64-.35-.82-.23-.18-.58-.27-1.05-.27zm-3.52 4.55a1.82 1.82 0 0 1-1.56.75c-.7 0-1.22-.25-1.59-.75a3.65 3.65 0 0 1-.54-2.17c0-.94.18-1.67.56-2.18.37-.5.9-.76 1.57-.76.5 0 .9.14 1.2.4.31.27.53.7.68 1.28l-.5.1c-.11-.45-.29-.79-.51-1a1.21 1.21 0 0 0-.87-.33c-.5 0-.9.21-1.18.63a3.25 3.25 0 0 0-.4 1.8c0 .83.13 1.46.41 1.88.28.42.7.64 1.25.64.41 0 .75-.12 1-.36s.38-.56.38-.96v-.6h-1.4v-.42h1.96v2.69h-.46zm-8.1.56c-.25.13-.54.19-.88.19-.7 0-1.23-.25-1.6-.75a3.66 3.66 0 0 1-.54-2.17c0-.94.19-1.67.56-2.18.37-.5.9-.76 1.58-.76.5 0 .9.14 1.2.4.3.27.53.7.67 1.28l-.49.1c-.12-.45-.3-.79-.52-1a1.22 1.22 0 0 0-.87-.33c-.5 0-.9.21-1.17.63a3.25 3.25 0 0 0-.41 1.8c0 .83.14 1.46.42 1.88.27.42.69.64 1.24.64.42 0 .75-.12 1-.36s.38-.56.38-.96v-.6h-1.4v-.42h1.96v2.69h-.46v-.64c-.18.25-.4.44-.66.56zm-7.62-5.15v5.23h-.5v-5.64h.84l2.69 4.76v-4.76h.5v5.64h-.55zm-2.61 5.23v-5.64h.52v5.64zm-3.18 0v-5.19h-1.66v-.45h3.85v.45h-1.67v5.19zm-4.4-5.64h.52v5.18h2.5v.46h-3.02zm-5.06 3.8c0 .47.12.84.38 1.1.25.25.62.38 1.1.38.47 0 .84-.13 1.1-.39.25-.25.38-.62.38-1.1v-3.79h.52v3.8c0 .62-.18 1.1-.52 1.43-.34.33-.83.5-1.48.5s-1.14-.17-1.49-.5c-.34-.33-.51-.8-.51-1.43v-3.8h.52v3.8zm-5.24.49l.45-.2c.15.41.35.7.59.9.23.2.52.29.87.29s.64-.1.85-.3c.22-.2.33-.47.33-.8a.98.98 0 0 0-.22-.64 1.86 1.86 0 0 0-.72-.47l-.73-.26c-.3-.1-.5-.18-.59-.23a1.67 1.67 0 0 1-.57-.5 1.2 1.2 0 0 1-.17-.67c0-.47.14-.83.43-1.1.28-.27.67-.4 1.17-.4.45 0 .82.1 1.1.33.3.22.52.55.67 1l-.44.15a1.77 1.77 0 0 0-.54-.78 1.3 1.3 0 0 0-.81-.25c-.31 0-.56.09-.76.27a.93.93 0 0 0-.29.7c0 .22.06.4.19.56.13.15.32.27.58.37l.44.15c.55.19.91.34 1.07.45.25.16.44.35.56.55.11.2.17.43.17.7 0 .5-.16.9-.47 1.18-.3.3-.73.44-1.25.44-.48 0-.87-.12-1.18-.35-.3-.23-.55-.6-.73-1.1zm-4.6-3.88v5.23h-.5v-5.64h.84l2.69 4.76v-4.76h.5v5.64H444zm-6.03 2.4c0-.87.2-1.58.6-2.1.4-.54.94-.8 1.6-.8.66 0 1.19.26 1.59.8.4.52.6 1.23.6 2.1 0 .9-.2 1.6-.6 2.13-.4.53-.93.8-1.6.8-.65 0-1.18-.27-1.59-.8-.4-.53-.6-1.24-.6-2.12zm.54 0c0 .77.15 1.37.45 1.81.3.44.7.66 1.2.66.52 0 .92-.22 1.22-.66.3-.44.44-1.04.44-1.8 0-.77-.15-1.37-.44-1.8-.3-.44-.7-.66-1.21-.66s-.92.22-1.21.65c-.3.44-.45 1.04-.45 1.8zm-1.16 1.13c-.13.6-.35 1.05-.66 1.35-.32.3-.73.44-1.25.44-.68 0-1.2-.26-1.57-.77a3.74 3.74 0 0 1-.55-2.2c0-.92.19-1.63.55-2.12.37-.5.9-.75 1.57-.75.48 0 .87.13 1.18.4.3.26.53.67.68 1.22l-.48.11a2.2 2.2 0 0 0-.56-.96c-.23-.21-.51-.32-.85-.32-.5 0-.87.22-1.14.64-.27.43-.4 1.03-.4 1.82 0 .78.14 1.39.42 1.83.28.43.67.65 1.17.65.38 0 .68-.12.92-.36.23-.24.4-.6.51-1.09zm-10.94-.14c0 .47.13.84.39 1.1.25.25.62.38 1.1.38.47 0 .84-.13 1.09-.39.26-.25.38-.62.38-1.1v-3.79h.52v3.8c0 .62-.17 1.1-.51 1.43-.34.33-.84.5-1.48.5-.65 0-1.15-.17-1.5-.5-.34-.33-.5-.8-.5-1.43v-3.8h.51zm-4.99-3.8h.52v3.05l2.51-3.05h.66l-1.8 2.16 2.02 3.48h-.58l-1.8-3.06-1 1.18v1.88h-.53zm-5.13 5.64l1.76-5.64h.7l1.75 5.64h-.53l-.57-1.85h-2.04l-.56 1.85zm1.2-2.3h1.78l-.88-2.98zm-3.87-3.34c.63 0 1.1.12 1.43.35.33.23.49.58.49 1.03 0 .3-.06.55-.19.74-.13.19-.33.35-.6.47v.04c.34.14.59.32.75.55.16.22.24.51.24.86 0 .53-.16.93-.48 1.2-.31.27-.8.4-1.43.4H409v-5.64zm.07 2.9h-1.19v2.28h1.35c.43 0 .76-.1 1-.3.23-.19.35-.47.35-.84 0-.38-.13-.67-.38-.86-.24-.19-.62-.28-1.13-.28zm-.08-2.45h-1.1v2h1.25c.4 0 .7-.08.92-.26a.9.9 0 0 0 .32-.74c0-.34-.11-.59-.34-.75a1.81 1.81 0 0 0-1.05-.25z"/><path id="v7xkc" d="M456.75 2054c28.92 0 53.91 3.69 65.75 8.21-14.49-3.5-38.53-5.8-65.75-5.8s-51.26 2.3-65.75 5.8c11.84-4.52 36.83-8.21 65.75-8.21"/></defs><g><g transform="translate(-391 -2032)"><use fill="#fff" xlink:href="#v7xka"/></g><g transform="translate(-391 -2032)"><use fill="#fff" xlink:href="#v7xkb"/></g><g transform="translate(-391 -2032)"><use fill="#fff" xlink:href="#v7xkc"/></g></g></svg>