<svg xmlns="http://www.w3.org/2000/svg" width="18" height="20" viewBox="0 0 18 20"><g transform="translate(-17)"><path d="M111,276.7h10.92V271H111Zm1.845-4.375h1.808a.586.586,0,0,1,0,1.172h-1.808a.586.586,0,0,1,0-1.172Z" transform="translate(-90.46 -260.414)"/><path d="M181.1,0h-1.28V3.75a.565.565,0,1,1-1.13,0V0H175V5.664h6.1Z" transform="translate(-152.05)"/><path d="M34.836,5.212,30.18.345V6.25a.576.576,0,0,1-.565.586h-7.23a.576.576,0,0,1-.565-.586V0H18.13A1.153,1.153,0,0,0,17,1.172V18.828A1.153,1.153,0,0,0,18.13,20H33.87A1.153,1.153,0,0,0,35,18.828V5.625A.6.6,0,0,0,34.836,5.212ZM32.59,16.875a.576.576,0,0,1-.565.586H19.975a.576.576,0,0,1-.565-.586V10a.576.576,0,0,1,.565-.586h12.05A.576.576,0,0,1,32.59,10Z"/></g></svg>