<svg xmlns="http://www.w3.org/2000/svg" width="30" height="30" viewBox="0 0 30 30">
  <path id="Path_21" data-name="Path 21" d="M15.3,0A14.98,14.98,0,0,0,4.887,25.8c.009.009.012.021.02.029.087.083.181.154.269.234.241.214.482.436.736.642.136.107.277.214.417.312.24.179.48.357.731.522.17.107.346.214.521.321.231.139.462.279.7.407.2.107.409.2.615.3.225.107.447.214.677.31s.462.171.7.255.435.161.659.229c.253.076.512.135.769.2.214.052.422.112.643.155.3.059.6.1.9.137.185.026.366.062.554.08.491.048.986.075,1.485.075s.994-.027,1.485-.075c.188-.018.369-.055.554-.08.3-.041.6-.078.9-.137.214-.043.429-.107.643-.155.257-.063.516-.122.769-.2.224-.068.44-.152.659-.229s.467-.161.7-.255.452-.2.677-.31c.206-.1.413-.189.615-.3.239-.127.469-.268.7-.407.175-.107.35-.2.521-.321.251-.165.491-.344.731-.522.139-.107.281-.2.417-.312.254-.2.5-.42.736-.642.088-.08.182-.151.269-.234.009-.007.012-.02.02-.029A14.985,14.985,0,0,0,15.3,0ZM25.743,22.432a10.758,10.758,0,0,0-5.736-7.377,6.425,6.425,0,1,0-9.471,0A10.757,10.757,0,0,0,4.8,22.432a12.857,12.857,0,1,1,20.944,0Z" transform="translate(-0.271 0)" fill="#8f8f8f"/>
</svg>
